SplineFontDB: 3.0
FontName: NotoSansThaana
FullName: Noto Sans Thaana
FamilyName: Noto Sans Thaana
Weight: Book
Copyright: Copyright 2014 Google Inc. All Rights Reserved.
Version: 1.01 uh
ItalicAngle: 0
UnderlinePosition: -390
UnderlineWidth: 100
Ascent: 1638
Descent: 410
InvalidEm: 0
sfntRevision: 0x0001028f
LayerCount: 2
Layer: 0 1 "Back" 1
Layer: 1 1 "Fore" 0
XUID: [1021 779 -1439063335 3340984]
FSType: 0
OS2Version: 4
OS2_WeightWidthSlopeOnly: 0
OS2_UseTypoMetrics: 0
CreationTime: 975487894
ModificationTime: 1443044231
PfmFamily: 17
TTFWeight: 400
TTFWidth: 5
LineGap: 0
VLineGap: 0
Panose: 2 11 5 2 4 5 4 2 2 4
OS2TypoAscent: 2189
OS2TypoAOffset: 0
OS2TypoDescent: -600
OS2TypoDOffset: 0
OS2TypoLinegap: 0
OS2WinAscent: 2189
OS2WinAOffset: 0
OS2WinDescent: 600
OS2WinDOffset: 0
HheadAscent: 2189
HheadAOffset: 0
HheadDescent: -600
HheadDOffset: 0
OS2SubXSize: 1434
OS2SubYSize: 1331
OS2SubXOff: 0
OS2SubYOff: 0
OS2SupXSize: 1434
OS2SupYSize: 1331
OS2SupXOff: 0
OS2SupYOff: 0
OS2StrikeYSize: 100
OS2StrikeYPos: 499
OS2CapHeight: 1462
OS2XHeight: 1098
OS2FamilyClass: 2566
OS2Vendor: 'GOOG'
OS2CodePages: 00000001.00000000
OS2UnicodeRanges: 00000000.00000000.00000100.00000000
Lookup: 1 0 0 "'salt' Stylistic Alternatives in Thaana lookup 0" { "'salt' Stylistic Alternatives in Thaana lookup 0 subtable"  } ['salt' ('thaa' <'dflt' > ) ]
Lookup: 260 0 0 "'mark' Mark Positioning in Thaana lookup 0" { "'mark' Mark Positioning in Thaana lookup 0 subtable"  } ['mark' ('thaa' <'dflt' > ) ]
Lookup: 260 0 0 "'mark' Mark Positioning in Thaana lookup 1" { "'mark' Mark Positioning in Thaana lookup 1 subtable"  } ['mark' ('thaa' <'dflt' > ) ]
DEI: 91125
ShortTable: maxp 16
  1
  0
  95
  720
  16
  85
  5
  1
  0
  0
  0
  0
  0
  0
  2
  1
EndShort

StartChar: .notdef
Encoding: 65536 -1 0
Width: 1229
GlyphClass: 2
Flags: W
LayerCount: 2
Back
Fore
SplineSet
193 1462 m 1,0,-1
 1034 1462 l 1,1,-1
 1034 0 l 1,2,-1
 193 0 l 1,3,-1
 193 1462 l 1,0,-1
297 104 m 1,4,-1
 930 104 l 1,5,-1
 930 1358 l 1,6,-1
 297 1358 l 1,7,-1
 297 104 l 1,4,-1
EndSplineSet
EndChar

StartChar: parenleft
Encoding: 40 40 4
Width: 1000
GlyphClass: 2
Flags: W
LayerCount: 2
Back
Fore
SplineSet
363 -365.5 m 128,-1,1
 279 -270 279 -270 229.5 -122.5 c 128,-1,2
 180 25 180 25 180 182 c 0,3,4
 180 506 180 506 322 808 c 128,-1,5
 464 1110 464 1110 692.5 1287 c 128,-1,6
 921 1464 921 1464 1076 1464 c 0,7,8
 1108 1464 1108 1464 1127 1447 c 128,-1,9
 1146 1430 1146 1430 1146 1405 c 0,10,11
 1146 1389 1146 1389 1136 1365 c 128,-1,12
 1126 1341 1126 1341 1008 1295.5 c 128,-1,13
 890 1250 890 1250 737 1103 c 128,-1,14
 584 956 584 956 482 708.5 c 128,-1,15
 380 461 380 461 380 182 c 0,16,17
 380 44 380 44 427.5 -73.5 c 128,-1,18
 475 -191 475 -191 541.5 -257.5 c 128,-1,19
 608 -324 608 -324 608 -373 c 0,20,21
 608 -408 608 -408 578.5 -434.5 c 128,-1,22
 549 -461 549 -461 507 -461 c 0,23,0
 447 -461 447 -461 363 -365.5 c 128,-1,1
EndSplineSet
EndChar

StartChar: parenright
Encoding: 41 41 5
Width: 1000
GlyphClass: 2
Flags: W
LayerCount: 2
Back
Fore
SplineSet
665 1366.5 m 128,-1,1
 750 1269 750 1269 798 1119 c 128,-1,2
 846 969 846 969 846 821 c 0,3,4
 846 497 846 497 704 195 c 128,-1,5
 562 -107 562 -107 333.5 -284 c 128,-1,6
 105 -461 105 -461 -50 -461 c 0,7,8
 -82 -461 -82 -461 -101 -444 c 128,-1,9
 -120 -427 -120 -427 -120 -402 c 2,10,-1
 -119 -381 l 2,11,12
 -118 -370 -118 -370 -97.5 -349.5 c 128,-1,13
 -77 -329 -77 -329 -1 -301.5 c 128,-1,14
 75 -274 75 -274 194.5 -184.5 c 128,-1,15
 314 -95 314 -95 419.5 58.5 c 128,-1,16
 525 212 525 212 585.5 410.5 c 128,-1,17
 646 609 646 609 646 821 c 0,18,19
 646 959 646 959 598.5 1076.5 c 128,-1,20
 551 1194 551 1194 484.5 1260.5 c 128,-1,21
 418 1327 418 1327 418 1376 c 0,22,23
 418 1411 418 1411 447.5 1437.5 c 128,-1,24
 477 1464 477 1464 519 1464 c 0,25,0
 580 1464 580 1464 665 1366.5 c 128,-1,1
EndSplineSet
EndChar

StartChar: comma
Encoding: 44 44 6
Width: 745
GlyphClass: 2
Flags: W
LayerCount: 2
Back
Fore
SplineSet
461.5 240 m 128,-1,1
 498 201 498 201 498 136 c 0,2,3
 498 75 498 75 441.5 -22.5 c 128,-1,4
 385 -120 385 -120 315 -191.5 c 128,-1,5
 245 -263 245 -263 203 -263 c 0,6,7
 179 -263 179 -263 166 -249 c 128,-1,8
 153 -235 153 -235 153 -218 c 0,9,10
 153 -197 153 -197 169 -180.5 c 128,-1,11
 185 -164 185 -164 232.5 -116 c 128,-1,12
 280 -68 280 -68 303 -11 c 1,13,14
 252 -8 252 -8 220.5 26.5 c 128,-1,15
 189 61 189 61 189 109 c 0,16,17
 189 175 189 175 243.5 227 c 128,-1,18
 298 279 298 279 366 279 c 0,19,0
 425 279 425 279 461.5 240 c 128,-1,1
EndSplineSet
EndChar

StartChar: period
Encoding: 46 46 7
Width: 745
GlyphClass: 2
Flags: W
LayerCount: 2
Back
Fore
SplineSet
196 14.5 m 128,-1,1
 162 49 162 49 162 103 c 0,2,3
 162 172 162 172 217 229 c 128,-1,4
 272 286 272 286 344 286 c 0,5,6
 400 286 400 286 436.5 249.5 c 128,-1,7
 473 213 473 213 473 159 c 0,8,9
 473 89 473 89 416.5 34.5 c 128,-1,10
 360 -20 360 -20 288 -20 c 0,11,0
 230 -20 230 -20 196 14.5 c 128,-1,1
EndSplineSet
EndChar

StartChar: uni060C
Encoding: 1548 1548 8
Width: 745
GlyphClass: 2
Flags: W
LayerCount: 2
Back
Fore
SplineSet
222.5 19 m 128,-1,1
 186 58 186 58 186 123 c 0,2,3
 186 184 186 184 242.5 281.5 c 128,-1,4
 299 379 299 379 369 450.5 c 128,-1,5
 439 522 439 522 481 522 c 0,6,7
 505 522 505 522 518 508 c 128,-1,8
 531 494 531 494 531 477 c 0,9,10
 531 456 531 456 515 439.5 c 128,-1,11
 499 423 499 423 451.5 375 c 128,-1,12
 404 327 404 327 381 270 c 1,13,14
 432 267 432 267 463.5 232.5 c 128,-1,15
 495 198 495 198 495 150 c 0,16,17
 495 84 495 84 440.5 32 c 128,-1,18
 386 -20 386 -20 318 -20 c 0,19,0
 259 -20 259 -20 222.5 19 c 128,-1,1
EndSplineSet
EndChar

StartChar: uni061B
Encoding: 1563 1563 9
Width: 745
GlyphClass: 2
Flags: W
LayerCount: 2
Back
Fore
SplineSet
196 14.5 m 128,-1,1
 162 49 162 49 162 103 c 0,2,3
 162 172 162 172 217 229 c 128,-1,4
 272 286 272 286 344 286 c 0,5,6
 400 286 400 286 436.5 249.5 c 128,-1,7
 473 213 473 213 473 159 c 0,8,9
 473 89 473 89 416.5 34.5 c 128,-1,10
 360 -20 360 -20 288 -20 c 0,11,0
 230 -20 230 -20 196 14.5 c 128,-1,1
257.5 533 m 128,-1,13
 221 572 221 572 221 637 c 0,14,15
 221 698 221 698 277.5 795.5 c 128,-1,16
 334 893 334 893 404 964.5 c 128,-1,17
 474 1036 474 1036 516 1036 c 0,18,19
 540 1036 540 1036 553 1022 c 128,-1,20
 566 1008 566 1008 566 991 c 0,21,22
 566 970 566 970 550 953.5 c 128,-1,23
 534 937 534 937 486.5 889 c 128,-1,24
 439 841 439 841 416 784 c 1,25,26
 467 781 467 781 498.5 746.5 c 128,-1,27
 530 712 530 712 530 664 c 0,28,29
 530 598 530 598 475.5 546 c 128,-1,30
 421 494 421 494 353 494 c 0,31,12
 294 494 294 494 257.5 533 c 128,-1,13
355 800 m 1024,32,-1
EndSplineSet
EndChar

StartChar: uni061F
Encoding: 1567 1567 10
Width: 980
GlyphClass: 2
Flags: W
LayerCount: 2
Back
Fore
SplineSet
1011 1223.5 m 128,-1,1
 973 1186 973 1186 944 1186 c 0,2,3
 909 1186 909 1186 830 1240 c 128,-1,4
 751 1294 751 1294 687 1294 c 0,5,6
 577 1294 577 1294 503.5 1234 c 128,-1,7
 430 1174 430 1174 430 1078 c 0,8,9
 430 994 430 994 518 873.5 c 128,-1,10
 606 753 606 753 606 653 c 0,11,12
 606 558 606 558 559.5 495.5 c 128,-1,13
 513 433 513 433 448 433 c 2,14,-1
 420 434 l 2,15,16
 395 434 395 434 376 443 c 128,-1,17
 357 452 357 452 357 471 c 0,18,19
 357 505 357 505 385.5 561 c 128,-1,20
 414 617 414 617 414 665 c 0,21,22
 414 727 414 727 338.5 837 c 128,-1,23
 263 947 263 947 263 1075 c 0,24,25
 263 1229 263 1229 392.5 1345.5 c 128,-1,26
 522 1462 522 1462 714 1462 c 0,27,28
 852 1462 852 1462 935.5 1421 c 128,-1,29
 1019 1380 1019 1380 1034 1356 c 128,-1,30
 1049 1332 1049 1332 1049 1301 c 0,31,0
 1049 1261 1049 1261 1011 1223.5 c 128,-1,1
257 229 m 128,-1,33
 312 286 312 286 384 286 c 0,34,35
 440 286 440 286 476.5 249.5 c 128,-1,36
 513 213 513 213 513 159 c 0,37,38
 513 89 513 89 456.5 34.5 c 128,-1,39
 400 -20 400 -20 328 -20 c 0,40,41
 270 -20 270 -20 236 14.5 c 128,-1,42
 202 49 202 49 202 103 c 0,43,32
 202 172 202 172 257 229 c 128,-1,33
EndSplineSet
EndChar

StartChar: uni0780
Encoding: 1920 1920 11
Width: 1084
GlyphClass: 2
Flags: W
AnchorPoint: "Anchor-1" 460 -120 basechar 0
AnchorPoint: "Anchor-0" 700 1060 basechar 0
LayerCount: 2
Back
Fore
SplineSet
1008 721 m 128,-1,1
 1024 702 1024 702 1024 671 c 0,2,3
 1024 657 1024 657 1017.5 633.5 c 128,-1,4
 1011 610 1011 610 953 531 c 128,-1,5
 895 452 895 452 744.5 323 c 128,-1,6
 594 194 594 194 453.5 106.5 c 128,-1,7
 313 19 313 19 239.5 -0.5 c 128,-1,8
 166 -20 166 -20 153 -20 c 0,9,10
 94 -20 94 -20 62 7 c 128,-1,11
 30 34 30 34 30 82 c 0,12,13
 30 179 30 179 134 205.5 c 128,-1,14
 238 232 238 232 385.5 316.5 c 128,-1,15
 533 401 533 401 646 480.5 c 128,-1,16
 759 560 759 560 833.5 650 c 128,-1,17
 908 740 908 740 961 740 c 0,18,0
 992 740 992 740 1008 721 c 128,-1,1
EndSplineSet
EndChar

StartChar: uni0781
Encoding: 1921 1921 12
Width: 1389
GlyphClass: 2
Flags: W
AnchorPoint: "Anchor-1" 460 -120 basechar 0
AnchorPoint: "Anchor-0" 750 1060 basechar 0
LayerCount: 2
Back
Fore
SplineSet
825 689.5 m 128,-1,1
 870 658 870 658 898 610 c 1,2,3
 976 610 976 610 1052.5 647 c 128,-1,4
 1129 684 1129 684 1190 742 c 128,-1,5
 1251 800 1251 800 1287 800 c 0,6,7
 1320 800 1320 800 1339.5 780 c 128,-1,8
 1359 760 1359 760 1359 734 c 0,9,10
 1359 623 1359 623 1175.5 511.5 c 128,-1,11
 992 400 992 400 748 400 c 0,12,13
 731 400 731 400 723 401 c 1,14,15
 582 227 582 227 438.5 97.5 c 128,-1,16
 295 -32 295 -32 172.5 -96 c 128,-1,17
 50 -160 50 -160 -2 -160 c 0,18,19
 -60 -160 -60 -160 -90 -129 c 128,-1,20
 -120 -98 -120 -98 -120 -44 c 0,21,22
 -120 37 -120 37 -31.5 66 c 128,-1,23
 57 95 57 95 117.5 120.5 c 128,-1,24
 178 146 178 146 270 212.5 c 128,-1,25
 362 279 362 279 434.5 347 c 128,-1,26
 507 415 507 415 560 474 c 1,27,28
 524 513 524 513 524 561 c 0,29,30
 524 631 524 631 577 676 c 128,-1,31
 630 721 630 721 720 721 c 0,32,0
 780 721 780 721 825 689.5 c 128,-1,1
EndSplineSet
EndChar

StartChar: uni0782
Encoding: 1922 1922 13
Width: 1656
GlyphClass: 2
Flags: W
AnchorPoint: "Anchor-1" 460 -120 basechar 0
AnchorPoint: "Anchor-0" 880 1060 basechar 0
LayerCount: 2
Back
Fore
SplineSet
835 688.5 m 128,-1,1
 885 657 885 657 913 609 c 1,2,3
 965 616 965 616 1003 653.5 c 128,-1,4
 1041 691 1041 691 1075 730.5 c 128,-1,5
 1109 770 1109 770 1145 770 c 256,6,7
 1181 770 1181 770 1200 742 c 128,-1,8
 1219 714 1219 714 1219 634 c 0,9,10
 1219 617 1219 617 1215 597.5 c 128,-1,11
 1211 578 1211 578 1203 561 c 1,12,13
 1292 563 1292 563 1328 588.5 c 128,-1,14
 1364 614 1364 614 1438 704 c 2,15,-1
 1469 743 l 2,16,17
 1496 776 1496 776 1514 788 c 128,-1,18
 1532 800 1532 800 1554 800 c 0,19,20
 1589 800 1589 800 1607.5 780.5 c 128,-1,21
 1626 761 1626 761 1626 717 c 0,22,23
 1626 603 1626 603 1500 492.5 c 128,-1,24
 1374 382 1374 382 1220 382 c 0,25,26
 1166 382 1166 382 1119 398.5 c 128,-1,27
 1072 415 1072 415 1027 448 c 1,28,-1
 969 432 l 2,29,30
 910 414 910 414 860.5 406.5 c 128,-1,31
 811 399 811 399 752 399 c 2,32,-1
 737 399 l 2,33,34
 730 399 730 399 722 400 c 1,35,36
 597 245 597 245 455 112.5 c 128,-1,37
 313 -20 313 -20 183 -90 c 128,-1,38
 53 -160 53 -160 -2 -160 c 0,39,40
 -60 -160 -60 -160 -90 -129 c 128,-1,41
 -120 -98 -120 -98 -120 -44 c 0,42,43
 -120 37 -120 37 -31.5 66 c 128,-1,44
 57 95 57 95 117.5 120.5 c 128,-1,45
 178 146 178 146 270 212.5 c 128,-1,46
 362 279 362 279 434 346.5 c 128,-1,47
 506 414 506 414 559 473 c 1,48,49
 524 511 524 511 524 560 c 0,50,51
 524 628 524 628 578.5 674 c 128,-1,52
 633 720 633 720 725 720 c 0,53,0
 785 720 785 720 835 688.5 c 128,-1,1
EndSplineSet
EndChar

StartChar: uni0783
Encoding: 1923 1923 14
Width: 1329
GlyphClass: 2
Flags: W
AnchorPoint: "Anchor-1" 460 -120 basechar 0
AnchorPoint: "Anchor-0" 650 1060 basechar 0
LayerCount: 2
Back
Fore
SplineSet
757 673.5 m 128,-1,1
 794 650 794 650 822 620 c 1,2,3
 944 720 944 720 1045 775 c 128,-1,4
 1146 830 1146 830 1219 830 c 0,5,6
 1260 830 1260 830 1279.5 811.5 c 128,-1,7
 1299 793 1299 793 1299 762 c 0,8,9
 1299 724 1299 724 1209 673.5 c 128,-1,10
 1119 623 1119 623 1086 596 c 2,11,-1
 977 508 l 1,12,13
 1004 498 1004 498 1038 492.5 c 128,-1,14
 1072 487 1072 487 1115 487 c 0,15,16
 1172 487 1172 487 1204.5 464 c 128,-1,17
 1237 441 1237 441 1237 396 c 0,18,19
 1237 359 1237 359 1193.5 337.5 c 128,-1,20
 1150 316 1150 316 1073 316 c 0,21,22
 1010 316 1010 316 937.5 328.5 c 128,-1,23
 865 341 865 341 796 365 c 1,24,25
 743 320 743 320 564.5 157.5 c 128,-1,26
 386 -5 386 -5 224.5 -82.5 c 128,-1,27
 63 -160 63 -160 6 -160 c 0,28,29
 -57 -160 -57 -160 -88.5 -127.5 c 128,-1,30
 -120 -95 -120 -95 -120 -44 c 0,31,32
 -120 45 -120 45 -14 69.5 c 128,-1,33
 92 94 92 94 255.5 175 c 128,-1,34
 419 256 419 256 628 447 c 1,35,36
 589 476 589 476 566 509.5 c 128,-1,37
 543 543 543 543 543 581 c 0,38,39
 543 627 543 627 573.5 662 c 128,-1,40
 604 697 604 697 661 697 c 0,41,0
 720 697 720 697 757 673.5 c 128,-1,1
EndSplineSet
EndChar

StartChar: uni0784
Encoding: 1924 1924 15
Width: 1458
GlyphClass: 2
Flags: W
AnchorPoint: "Anchor-1" 560 -120 basechar 0
AnchorPoint: "Anchor-0" 830 1060 basechar 0
LayerCount: 2
Back
Fore
SplineSet
1112 146.5 m 128,-1,1
 886 -20 886 -20 560 -20 c 0,2,3
 365 -20 365 -20 242.5 68.5 c 128,-1,4
 120 157 120 157 120 300 c 0,5,6
 120 465 120 465 235.5 571.5 c 128,-1,7
 351 678 351 678 545 678 c 0,8,9
 614 678 614 678 669 660 c 128,-1,10
 724 642 724 642 769 613 c 1,11,12
 847 670 847 670 933.5 705 c 128,-1,13
 1020 740 1020 740 1114 740 c 0,14,15
 1216 740 1216 740 1277 683 c 128,-1,16
 1338 626 1338 626 1338 540 c 0,17,0
 1338 313 1338 313 1112 146.5 c 128,-1,1
817.5 436 m 128,-1,19
 673 312 673 312 595 160 c 1,20,21
 838 173 838 173 988 281 c 128,-1,22
 1138 389 1138 389 1138 500 c 0,23,24
 1138 560 1138 560 1070 560 c 0,25,18
 962 560 962 560 817.5 436 c 128,-1,19
345.5 232 m 128,-1,27
 371 199 371 199 408 182 c 1,28,-1
 448 250 l 2,29,30
 484 311 484 311 528 370.5 c 128,-1,31
 572 430 572 430 623 483 c 1,32,33
 575 498 575 498 532 498 c 0,34,35
 442 498 442 498 381 445 c 128,-1,36
 320 392 320 392 320 318 c 0,37,26
 320 265 320 265 345.5 232 c 128,-1,27
EndSplineSet
EndChar

StartChar: uni0785
Encoding: 1925 1925 16
Width: 1117
GlyphClass: 2
Flags: W
AnchorPoint: "Anchor-1" 500 -120 basechar 0
AnchorPoint: "Anchor-0" 680 1060 basechar 0
LayerCount: 2
Back
Fore
SplineSet
610 347 m 1,0,1
 547 374 547 374 508.5 432.5 c 128,-1,2
 470 491 470 491 470 573 c 0,3,4
 470 673 470 673 534 751.5 c 128,-1,5
 598 830 598 830 676 830 c 0,6,7
 715 830 715 830 740.5 811.5 c 128,-1,8
 766 793 766 793 766 758 c 0,9,10
 766 735 766 735 750 719 c 2,11,-1
 714 684 l 2,12,13
 692 663 692 663 676.5 636 c 128,-1,14
 661 609 661 609 661 568 c 0,15,16
 661 520 661 520 693.5 495.5 c 128,-1,17
 726 471 726 471 774 466 c 1,18,19
 829 512 829 512 908.5 590.5 c 128,-1,20
 988 669 988 669 1027 669 c 0,21,22
 1056 669 1056 669 1071.5 656.5 c 128,-1,23
 1087 644 1087 644 1087 607 c 0,24,25
 1087 474 1087 474 636 157 c 128,-1,26
 185 -160 185 -160 1 -160 c 0,27,28
 -60 -160 -60 -160 -90 -127 c 128,-1,29
 -120 -94 -120 -94 -120 -40 c 0,30,31
 -120 52 -120 52 6 72.5 c 128,-1,32
 132 93 132 93 296.5 171.5 c 128,-1,33
 461 250 461 250 610 347 c 1,0,1
EndSplineSet
EndChar

StartChar: uni0786
Encoding: 1926 1926 17
Width: 1126
GlyphClass: 2
Flags: W
AnchorPoint: "Anchor-1" 460 -120 basechar 0
AnchorPoint: "Anchor-0" 720 1060 basechar 0
LayerCount: 2
Back
Fore
SplineSet
373 233 m 1,0,1
 509 277 509 277 654 413.5 c 128,-1,2
 799 550 799 550 861.5 645 c 128,-1,3
 924 740 924 740 992 740 c 0,4,5
 1031 740 1031 740 1048.5 716 c 128,-1,6
 1066 692 1066 692 1066 654 c 0,7,8
 1066 544 1066 544 830.5 339.5 c 128,-1,9
 595 135 595 135 425.5 57.5 c 128,-1,10
 256 -20 256 -20 159 -20 c 0,11,12
 117 -20 117 -20 88.5 3 c 128,-1,13
 60 26 60 26 60 56 c 0,14,15
 60 98 60 98 92.5 141.5 c 128,-1,16
 125 185 125 185 190 291.5 c 128,-1,17
 255 398 255 398 271.5 504 c 128,-1,18
 288 610 288 610 321.5 639.5 c 128,-1,19
 355 669 355 669 402 669 c 0,20,21
 456 669 456 669 481 640.5 c 128,-1,22
 506 612 506 612 506 548 c 0,23,24
 506 489 506 489 453.5 386.5 c 128,-1,25
 401 284 401 284 368 251 c 1,26,-1
 373 233 l 1,0,1
EndSplineSet
EndChar

StartChar: uni0787
Encoding: 1927 1927 18
Width: 1091
GlyphClass: 2
Flags: W
AnchorPoint: "Anchor-1" 400 -120 basechar 0
AnchorPoint: "Anchor-0" 540 1060 basechar 0
LayerCount: 2
Back
Fore
SplineSet
787 526 m 1,0,1
 609 315 609 315 360.5 147.5 c 128,-1,2
 112 -20 112 -20 6 -20 c 0,3,4
 -57 -20 -57 -20 -88.5 7.5 c 128,-1,5
 -120 35 -120 35 -120 86 c 0,6,7
 -120 173 -120 173 -26 199.5 c 128,-1,8
 68 226 68 226 179 276.5 c 128,-1,9
 290 327 290 327 393.5 398.5 c 128,-1,10
 497 470 497 470 621.5 605 c 128,-1,11
 746 740 746 740 837 740 c 0,12,13
 904 740 904 740 937.5 693 c 128,-1,14
 971 646 971 646 971 544 c 0,15,16
 971 431 971 431 932 323.5 c 128,-1,17
 893 216 893 216 818.5 107 c 128,-1,18
 744 -2 744 -2 674 -2 c 0,19,20
 631 -2 631 -2 605.5 19.5 c 128,-1,21
 580 41 580 41 580 77 c 0,22,23
 580 115 580 115 602 144.5 c 128,-1,24
 624 174 624 174 683 263 c 128,-1,25
 742 352 742 352 762 408 c 128,-1,26
 782 464 782 464 787 526 c 1,0,1
EndSplineSet
EndChar

StartChar: uni0788
Encoding: 1928 1928 19
Width: 1102
GlyphClass: 2
Flags: W
AnchorPoint: "Anchor-1" 340 -120 basechar 0
AnchorPoint: "Anchor-0" 530 1060 basechar 0
LayerCount: 2
Back
Fore
SplineSet
470 294 m 1,0,1
 416 326 416 326 387 374 c 128,-1,2
 358 422 358 422 358 479 c 0,3,4
 358 607 358 607 490.5 718.5 c 128,-1,5
 623 830 623 830 785 830 c 0,6,7
 884 830 884 830 937 790 c 128,-1,8
 990 750 990 750 990 674 c 0,9,10
 990 562 990 562 913 455 c 128,-1,11
 836 348 836 348 608 167.5 c 128,-1,12
 380 -13 380 -13 216.5 -86.5 c 128,-1,13
 53 -160 53 -160 6 -160 c 0,14,15
 -57 -160 -57 -160 -88.5 -129 c 128,-1,16
 -120 -98 -120 -98 -120 -47 c 0,17,18
 -120 45 -120 45 -22.5 67 c 128,-1,19
 75 89 75 89 214.5 156.5 c 128,-1,20
 354 224 354 224 470 294 c 1,0,1
652 421 m 1,21,22
 734 488 734 488 768 536 c 128,-1,23
 802 584 802 584 802 625 c 0,24,25
 802 642 802 642 791 653.5 c 128,-1,26
 780 665 780 665 745 665 c 0,27,28
 681 665 681 665 614.5 610 c 128,-1,29
 548 555 548 555 548 493 c 0,30,31
 548 462 548 462 571.5 444.5 c 128,-1,32
 595 427 595 427 652 421 c 1,21,22
EndSplineSet
EndChar

StartChar: uni0789
Encoding: 1929 1929 20
Width: 1060
GlyphClass: 2
Flags: W
AnchorPoint: "Anchor-1" 420 -120 basechar 0
AnchorPoint: "Anchor-0" 540 1060 basechar 0
LayerCount: 2
Back
Fore
SplineSet
713 627 m 128,-1,1
 680 635 680 635 635 635 c 0,2,3
 542 635 542 635 445 604 c 128,-1,4
 348 573 348 573 299 573 c 0,5,6
 257 573 257 573 233.5 599.5 c 128,-1,7
 210 626 210 626 210 662 c 0,8,9
 210 725 210 725 312 762.5 c 128,-1,10
 414 800 414 800 621 800 c 0,11,12
 807 800 807 800 893.5 758 c 128,-1,13
 980 716 980 716 980 633 c 0,14,15
 980 553 980 553 899.5 451.5 c 128,-1,16
 819 350 819 350 621 213 c 128,-1,17
 423 76 423 76 264 18 c 128,-1,18
 105 -40 105 -40 46 -40 c 0,19,20
 -80 -40 -80 -40 -80 61 c 0,21,22
 -80 154 -80 154 32.5 177 c 128,-1,23
 145 200 145 200 299 253.5 c 128,-1,24
 453 307 453 307 599.5 419.5 c 128,-1,25
 746 532 746 532 746 604 c 0,26,0
 746 619 746 619 713 627 c 128,-1,1
EndSplineSet
EndChar

StartChar: uni078A
Encoding: 1930 1930 21
Width: 920
GlyphClass: 2
Flags: W
AnchorPoint: "Anchor-1" 440 -120 basechar 0
AnchorPoint: "Anchor-0" 540 1060 basechar 0
LayerCount: 2
Back
Fore
SplineSet
677 455 m 1,0,1
 712 437 712 437 731.5 419.5 c 128,-1,2
 751 402 751 402 751 368 c 0,3,4
 751 285 751 285 583 149.5 c 128,-1,5
 415 14 415 14 244 -73 c 128,-1,6
 73 -160 73 -160 6 -160 c 0,7,8
 -57 -160 -57 -160 -88.5 -127.5 c 128,-1,9
 -120 -95 -120 -95 -120 -44 c 0,10,11
 -120 50 -120 50 34.5 81.5 c 128,-1,12
 189 113 189 113 353.5 194.5 c 128,-1,13
 518 276 518 276 518 338 c 0,14,15
 518 350 518 350 484.5 365.5 c 128,-1,16
 451 381 451 381 433.5 402 c 128,-1,17
 416 423 416 423 416 454 c 0,18,19
 416 480 416 480 447 506.5 c 128,-1,20
 478 533 478 533 531 559 c 2,21,-1
 586 586 l 2,22,23
 612 598 612 598 628.5 608.5 c 128,-1,24
 645 619 645 619 645 627 c 0,25,26
 645 636 645 636 637.5 641 c 128,-1,27
 630 646 630 646 614 650 c 2,28,-1
 575 659 l 2,29,30
 510 674 510 674 483 692 c 128,-1,31
 456 710 456 710 456 747 c 0,32,33
 456 795 456 795 506 821.5 c 128,-1,34
 556 848 556 848 606 877.5 c 128,-1,35
 656 907 656 907 699.5 943.5 c 128,-1,36
 743 980 743 980 779 980 c 0,37,38
 811 980 811 980 834 956.5 c 128,-1,39
 857 933 857 933 857 900 c 0,40,41
 857 872 857 872 819.5 836.5 c 128,-1,42
 782 801 782 801 709 765 c 1,43,44
 818 735 818 735 844 712 c 128,-1,45
 870 689 870 689 870 657 c 0,46,47
 870 603 870 603 822 553 c 128,-1,48
 774 503 774 503 677 455 c 1,0,1
EndSplineSet
EndChar

StartChar: uni078B
Encoding: 1931 1931 22
Width: 1298
GlyphClass: 2
Flags: WO
AnchorPoint: "Anchor-1" 500 -120 basechar 0
AnchorPoint: "Anchor-0" 640 1060 basechar 0
LayerCount: 2
Back
Fore
SplineSet
1104 791 m 1,0,1
 1132 781 1132 781 1161 734.5 c 128,-1,2
 1190 688 1190 688 1190 630 c 0,3,4
 1190 483 1190 483 1062.5 393 c 128,-1,5
 935 303 935 303 755 303 c 0,6,7
 735 303 735 303 708.5 305 c 128,-1,8
 682 307 682 307 652 312 c 1,9,10
 439 59 439 59 255 -50.5 c 128,-1,11
 71 -160 71 -160 -2 -160 c 0,12,13
 -60 -160 -60 -160 -90 -129 c 128,-1,14
 -120 -98 -120 -98 -120 -44 c 0,15,16
 -120 42 -120 42 -12 72.5 c 128,-1,17
 96 103 96 103 161 135 c 128,-1,18
 226 167 226 167 308 227.5 c 128,-1,19
 390 288 390 288 481 382 c 1,20,21
 462 399 462 399 451.5 420.5 c 128,-1,22
 441 442 441 442 441 469 c 0,23,24
 441 537 441 537 481 573.5 c 128,-1,25
 521 610 521 610 592 610 c 0,26,27
 631 610 631 610 663 579 c 128,-1,28
 695 548 695 548 708 501 c 1,29,30
 748 488 748 488 809 488 c 0,31,32
 883 488 883 488 936.5 526.5 c 128,-1,33
 990 565 990 565 990 627 c 0,34,35
 990 698 990 698 914.5 724 c 128,-1,36
 839 750 839 750 839 800 c 0,37,38
 839 867 839 867 933 891.5 c 128,-1,39
 1027 916 1027 916 1065 940 c 2,40,-1
 1095 959 l 2,41,42
 1109 968 1109 968 1123.5 974 c 128,-1,43
 1138 980 1138 980 1156 980 c 0,44,45
 1192 980 1192 980 1215 957 c 128,-1,46
 1238 934 1238 934 1238 900 c 0,47,48
 1238 869 1238 869 1213 845.5 c 128,-1,49
 1188 822 1188 822 1104 791 c 1,0,1
EndSplineSet
EndChar

StartChar: uni078C
Encoding: 1932 1932 23
Width: 1330
GlyphClass: 2
Flags: W
AnchorPoint: "Anchor-1" 420 -120 basechar 0
AnchorPoint: "Anchor-0" 600 1060 basechar 0
LayerCount: 2
Back
Fore
SplineSet
569 427 m 1,0,1
 537 403 537 403 513.5 384.5 c 128,-1,2
 490 366 490 366 490 351 c 0,3,4
 490 337 490 337 548 282.5 c 128,-1,5
 606 228 606 228 606 165 c 0,6,7
 606 62 606 62 469.5 -14 c 128,-1,8
 333 -90 333 -90 186 -90 c 0,9,10
 73 -90 73 -90 11.5 -61 c 128,-1,11
 -50 -32 -50 -32 -50 21 c 0,12,13
 -50 64 -50 64 -30 90.5 c 128,-1,14
 -10 117 -10 117 34 117 c 0,15,16
 66 117 66 117 109 102.5 c 128,-1,17
 152 88 152 88 192 88 c 0,18,19
 286 88 286 88 343.5 109.5 c 128,-1,20
 401 131 401 131 401 173 c 0,21,22
 401 204 401 204 344 243 c 128,-1,23
 287 282 287 282 287 310 c 0,24,25
 287 392 287 392 407 506.5 c 128,-1,26
 527 621 527 621 710 710.5 c 128,-1,27
 893 800 893 800 1022 800 c 0,28,29
 1116 800 1116 800 1159 751.5 c 128,-1,30
 1202 703 1202 703 1202 615 c 0,31,32
 1202 484 1202 484 1094.5 399 c 128,-1,33
 987 314 987 314 850 314 c 0,34,35
 782 314 782 314 704.5 344 c 128,-1,36
 627 374 627 374 569 427 c 1,0,1
1003 630 m 128,-1,38
 994 635 994 635 978 635 c 0,39,40
 954 635 954 635 879 602 c 128,-1,41
 804 569 804 569 733 529 c 1,42,43
 759 509 759 509 790.5 496.5 c 128,-1,44
 822 484 822 484 860 484 c 0,45,46
 932 484 932 484 972 515.5 c 128,-1,47
 1012 547 1012 547 1012 608 c 0,48,37
 1012 625 1012 625 1003 630 c 128,-1,38
EndSplineSet
EndChar

StartChar: uni078D
Encoding: 1933 1933 24
Width: 1179
GlyphClass: 2
Flags: W
AnchorPoint: "Anchor-1" 460 -120 basechar 0
AnchorPoint: "Anchor-0" 440 1060 basechar 0
LayerCount: 2
Back
Fore
SplineSet
692 741 m 1,0,1
 733 741 733 741 773 746 c 2,2,-1
 931 762 l 2,3,4
 970 765 970 765 1009 765 c 0,5,6
 1040 765 1040 765 1059.5 749 c 128,-1,7
 1079 733 1079 733 1079 701 c 256,8,9
 1079 669 1079 669 1057.5 632.5 c 128,-1,10
 1036 596 1036 596 892.5 449 c 128,-1,11
 749 302 749 302 572 155.5 c 128,-1,12
 395 9 395 9 235.5 -75.5 c 128,-1,13
 76 -160 76 -160 6 -160 c 0,14,15
 -57 -160 -57 -160 -88.5 -127.5 c 128,-1,16
 -120 -95 -120 -95 -120 -44 c 0,17,18
 -120 47 -120 47 -16.5 69 c 128,-1,19
 87 91 87 91 227 157 c 128,-1,20
 367 223 367 223 533 360.5 c 128,-1,21
 699 498 699 498 798 587 c 1,22,23
 753 582 753 582 705 579.5 c 128,-1,24
 657 577 657 577 602 577 c 0,25,26
 517 577 517 577 471.5 607 c 128,-1,27
 426 637 426 637 426 685 c 0,28,29
 426 734 426 734 473 766 c 128,-1,30
 520 798 520 798 572 844.5 c 128,-1,31
 624 891 624 891 662 935.5 c 128,-1,32
 700 980 700 980 753 980 c 0,33,34
 788 980 788 980 809.5 955.5 c 128,-1,35
 831 931 831 931 831 896 c 0,36,37
 831 829 831 829 692 741 c 1,0,1
EndSplineSet
EndChar

StartChar: uni078E
Encoding: 1934 1934 25
Width: 1023
GlyphClass: 2
Flags: W
AnchorPoint: "Anchor-1" 460 -120 basechar 0
AnchorPoint: "Anchor-0" 560 1060 basechar 0
LayerCount: 2
Back
Fore
SplineSet
504 253 m 2,1,-1
 453 307 l 2,2,3
 425 337 425 337 402 374 c 128,-1,4
 379 411 379 411 379 455 c 0,5,6
 379 564 379 564 594.5 682 c 128,-1,7
 810 800 810 800 873 800 c 0,8,9
 919 800 919 800 943.5 775 c 128,-1,10
 968 750 968 750 968 714 c 0,11,12
 968 665 968 665 902.5 636.5 c 128,-1,13
 837 608 837 608 708 536 c 128,-1,14
 579 464 579 464 579 443 c 0,15,16
 579 429 579 429 602 407 c 2,17,-1
 653 356 l 2,18,19
 681 328 681 328 704 297 c 128,-1,20
 727 266 727 266 727 236 c 0,21,22
 727 92 727 92 550.5 1 c 128,-1,23
 374 -90 374 -90 134 -90 c 0,24,25
 23 -90 23 -90 -46 -58 c 128,-1,26
 -115 -26 -115 -26 -115 30 c 0,27,28
 -115 74 -115 74 -87 102 c 128,-1,29
 -59 130 -59 130 -21 130 c 0,30,31
 -2 130 -2 130 20 124 c 2,32,-1
 66 110 l 2,33,34
 91 102 91 102 120.5 96 c 128,-1,35
 150 90 150 90 185 90 c 0,36,37
 332 90 332 90 429.5 124 c 128,-1,38
 527 158 527 158 527 211 c 0,39,0
 527 229 527 229 504 253 c 2,1,-1
EndSplineSet
EndChar

StartChar: uni078F
Encoding: 1935 1935 26
Width: 1478
GlyphClass: 2
Flags: W
AnchorPoint: "Anchor-1" 560 -340 basechar 0
AnchorPoint: "Anchor-0" 680 1060 basechar 0
LayerCount: 2
Back
Fore
SplineSet
648 659.5 m 128,-1,1
 688 578 688 578 729 578 c 0,2,3
 751 578 751 578 780 599 c 128,-1,4
 809 620 809 620 848 659 c 2,5,-1
 886 698 l 2,6,7
 904 716 904 716 920 728 c 128,-1,8
 936 740 936 740 947 740 c 0,9,10
 1006 740 1006 740 1007.5 639 c 128,-1,11
 1009 538 1009 538 1045 511 c 1,12,13
 1077 511 1077 511 1125 558.5 c 128,-1,14
 1173 606 1173 606 1220.5 688.5 c 128,-1,15
 1268 771 1268 771 1354 771 c 0,16,17
 1391 771 1391 771 1409.5 750.5 c 128,-1,18
 1428 730 1428 730 1428 696 c 0,19,20
 1428 622 1428 622 1335 534.5 c 128,-1,21
 1242 447 1242 447 1167.5 389 c 128,-1,22
 1093 331 1093 331 1025 331 c 0,23,24
 975 331 975 331 930 371 c 128,-1,25
 885 411 885 411 868 477 c 1,26,27
 818 403 818 403 765.5 374.5 c 128,-1,28
 713 346 713 346 669 346 c 0,29,30
 655 346 655 346 634 357 c 128,-1,31
 613 368 613 368 591 383 c 1,32,33
 456 299 456 299 373 198.5 c 128,-1,34
 290 98 290 98 290 8 c 0,35,36
 290 -68 290 -68 356.5 -104 c 128,-1,37
 423 -140 423 -140 557 -140 c 0,38,39
 651 -140 651 -140 707.5 -137 c 128,-1,40
 764 -134 764 -134 802 -130 c 2,41,-1
 867 -124 l 2,42,43
 895 -121 895 -121 932 -121 c 0,44,45
 965 -121 965 -121 985.5 -139.5 c 128,-1,46
 1006 -158 1006 -158 1006 -194 c 0,47,48
 1006 -256 1006 -256 885 -288 c 128,-1,49
 764 -320 764 -320 545 -320 c 0,50,51
 325 -320 325 -320 212.5 -240.5 c 128,-1,52
 100 -161 100 -161 100 -15 c 0,53,54
 100 112 100 112 205.5 247.5 c 128,-1,55
 311 383 311 383 470 480 c 1,56,-1
 439 499 l 2,57,58
 411 515 411 515 395 534 c 128,-1,59
 379 553 379 553 379 577 c 0,60,61
 379 635 379 635 437.5 688 c 128,-1,62
 496 741 496 741 566 741 c 0,63,0
 608 741 608 741 648 659.5 c 128,-1,1
EndSplineSet
EndChar

StartChar: uni0790
Encoding: 1936 1936 27
Width: 2087
GlyphClass: 2
Flags: W
AnchorPoint: "Anchor-1" 460 -120 basechar 0
AnchorPoint: "Anchor-0" 1120 1060 basechar 0
LayerCount: 2
Back
Fore
SplineSet
321 423 m 1,0,1
 248 463 248 463 223 498.5 c 128,-1,2
 198 534 198 534 198 582 c 0,3,4
 198 641 198 641 246 692 c 128,-1,5
 294 743 294 743 359 743 c 0,6,7
 436 743 436 743 486 691 c 128,-1,8
 536 639 536 639 542 554 c 1,9,10
 657 538 657 538 791.5 529 c 128,-1,11
 926 520 926 520 1091 520 c 0,12,13
 1647 520 1647 520 1745.5 598 c 128,-1,14
 1844 676 1844 676 1875.5 753 c 128,-1,15
 1907 830 1907 830 1975 830 c 0,16,17
 2014 830 2014 830 2030.5 807.5 c 128,-1,18
 2047 785 2047 785 2047 747 c 0,19,20
 2047 635 2047 635 1934.5 524.5 c 128,-1,21
 1822 414 1822 414 1640 377 c 128,-1,22
 1458 340 1458 340 1065 340 c 0,23,24
 893 340 893 340 755 351.5 c 128,-1,25
 617 363 617 363 510 378 c 1,26,27
 466 279 466 279 348 186.5 c 128,-1,28
 230 94 230 94 154 94 c 0,29,30
 106 94 106 94 78 118 c 128,-1,31
 50 142 50 142 50 182 c 0,32,33
 50 239 50 239 126 265.5 c 128,-1,34
 202 292 202 292 256 336.5 c 128,-1,35
 310 381 310 381 321 423 c 1,0,1
EndSplineSet
EndChar

StartChar: uni0791
Encoding: 1937 1937 28
Width: 799
GlyphClass: 2
Flags: W
AnchorPoint: "Anchor-1" 420 -120 basechar 0
AnchorPoint: "Anchor-0" 360 1060 basechar 0
LayerCount: 2
Back
Fore
SplineSet
536.5 96.5 m 128,-1,1
 556 98 556 98 586 98 c 0,2,3
 624 98 624 98 641.5 74.5 c 128,-1,4
 659 51 659 51 659 9 c 0,5,6
 659 -42 659 -42 623.5 -66 c 128,-1,7
 588 -90 588 -90 518 -90 c 0,8,9
 358 -90 358 -90 204 -17.5 c 128,-1,10
 50 55 50 55 50 159 c 0,11,12
 50 228 50 228 99 278.5 c 128,-1,13
 148 329 148 329 221 362 c 2,14,-1
 306 401 l 1,15,16
 283 410 283 410 181 428.5 c 128,-1,17
 79 447 79 447 79 506 c 0,18,19
 79 550 79 550 120 589 c 128,-1,20
 161 628 161 628 200.5 666 c 128,-1,21
 240 704 240 704 302.5 748 c 128,-1,22
 365 792 365 792 406 792 c 0,23,24
 442 792 442 792 460 771.5 c 128,-1,25
 478 751 478 751 478 725 c 0,26,27
 478 692 478 692 439.5 648.5 c 128,-1,28
 401 605 401 605 325 556 c 1,29,30
 340 551 340 551 363 546 c 2,31,-1
 411 534 l 2,32,33
 488 514 488 514 521.5 489.5 c 128,-1,34
 555 465 555 465 555 435 c 0,35,36
 555 346 555 346 481.5 317.5 c 128,-1,37
 408 289 408 289 336 246.5 c 128,-1,38
 264 204 264 204 264 189 c 0,39,40
 264 160 264 160 333 127.5 c 128,-1,41
 402 95 402 95 492 95 c 0,42,0
 517 95 517 95 536.5 96.5 c 128,-1,1
556 800 m 1024,43,-1
EndSplineSet
EndChar

StartChar: uni0792
Encoding: 1938 1938 29
Width: 1168
GlyphClass: 2
Flags: W
AnchorPoint: "Anchor-1" 500 -340 basechar 0
AnchorPoint: "Anchor-0" 540 1060 basechar 0
LayerCount: 2
Back
Fore
SplineSet
707 194.5 m 128,-1,1
 642 215 642 215 581 250 c 1,2,3
 427 148 427 148 358.5 76 c 128,-1,4
 290 4 290 4 290 -41 c 0,5,6
 290 -89 290 -89 358 -114.5 c 128,-1,7
 426 -140 426 -140 554 -140 c 0,8,9
 596 -140 596 -140 630 -138.5 c 128,-1,10
 664 -137 664 -137 692 -135 c 2,11,-1
 748 -131 l 2,12,13
 775 -131 775 -131 804 -130 c 0,14,15
 837 -130 837 -130 857.5 -148 c 128,-1,16
 878 -166 878 -166 878 -202 c 0,17,18
 878 -258 878 -258 789 -289 c 128,-1,19
 700 -320 700 -320 541 -320 c 0,20,21
 332 -320 332 -320 216 -249 c 128,-1,22
 100 -178 100 -178 100 -67 c 0,23,24
 100 50 100 50 175 155.5 c 128,-1,25
 250 261 250 261 429 376 c 1,26,27
 387 430 387 430 387 485 c 0,28,29
 387 526 387 526 414 561.5 c 128,-1,30
 441 597 441 597 483 597 c 0,31,32
 521 597 521 597 548 581.5 c 128,-1,33
 575 566 575 566 599 537 c 2,34,-1
 627 499 l 1,35,36
 783 595 783 595 890.5 647.5 c 128,-1,37
 998 700 998 700 1041 700 c 0,38,39
 1070 700 1070 700 1093.5 679 c 128,-1,40
 1117 658 1117 658 1117 622 c 0,41,42
 1117 568 1117 568 1014.5 511.5 c 128,-1,43
 912 455 912 455 777 374 c 1,44,45
 792 367 792 367 808 363 c 2,46,-1
 839 353 l 2,47,48
 879 341 879 341 901 317 c 128,-1,49
 923 293 923 293 923 261 c 0,50,51
 923 226 923 226 901.5 200 c 128,-1,52
 880 174 880 174 829 174 c 0,53,0
 772 174 772 174 707 194.5 c 128,-1,1
809 720 m 1024,54,-1
EndSplineSet
EndChar

StartChar: uni0793
Encoding: 1939 1939 30
Width: 1375
GlyphClass: 2
Flags: W
AnchorPoint: "Anchor-1" 500 -340 basechar 0
AnchorPoint: "Anchor-0" 750 1060 basechar 0
LayerCount: 2
Back
Fore
SplineSet
781 652 m 1,0,1
 858 715 858 715 937.5 747.5 c 128,-1,2
 1017 780 1017 780 1101 780 c 0,3,4
 1206 780 1206 780 1260.5 728.5 c 128,-1,5
 1315 677 1315 677 1315 588 c 0,6,7
 1315 435 1315 435 1132 325.5 c 128,-1,8
 949 216 949 216 709 216 c 0,9,10
 604 216 604 216 525 228 c 1,11,12
 383 158 383 158 336.5 110.5 c 128,-1,13
 290 63 290 63 290 13 c 0,14,15
 290 -76 290 -76 352.5 -108 c 128,-1,16
 415 -140 415 -140 564 -140 c 0,17,18
 770 -140 770 -140 856 -123 c 128,-1,19
 942 -106 942 -106 953 -106 c 0,20,21
 986 -106 986 -106 1006.5 -123 c 128,-1,22
 1027 -140 1027 -140 1027 -176 c 0,23,24
 1027 -246 1027 -246 902.5 -283 c 128,-1,25
 778 -320 778 -320 563 -320 c 0,26,27
 338 -320 338 -320 219 -245.5 c 128,-1,28
 100 -171 100 -171 100 -32 c 0,29,30
 100 57 100 57 154.5 130.5 c 128,-1,31
 209 204 209 204 336 286 c 1,32,33
 269 324 269 324 240.5 375.5 c 128,-1,34
 212 427 212 427 212 487 c 0,35,36
 212 588 212 588 304.5 667 c 128,-1,37
 397 746 397 746 549 746 c 0,38,39
 603 746 603 746 669 720.5 c 128,-1,40
 735 695 735 695 781 652 c 1,0,1
732 381 m 1,41,42
 886 387 886 387 1005.5 447 c 128,-1,43
 1125 507 1125 507 1125 570 c 0,44,45
 1125 583 1125 583 1110 599 c 128,-1,46
 1095 615 1095 615 1056 615 c 0,47,48
 1003 615 1003 615 938 572 c 128,-1,49
 873 529 873 529 732 381 c 1,41,42
516 395 m 1,50,51
 548 421 548 421 583 458 c 2,52,-1
 656 534 l 1,53,54
 634 555 634 555 607.5 568 c 128,-1,55
 581 581 581 581 543 581 c 0,56,57
 475 581 475 581 438.5 552.5 c 128,-1,58
 402 524 402 524 402 487 c 0,59,60
 402 454 402 454 429 431 c 128,-1,61
 456 408 456 408 516 395 c 1,50,51
EndSplineSet
EndChar

StartChar: uni0794
Encoding: 1940 1940 31
Width: 1491
GlyphClass: 2
Flags: W
AnchorPoint: "Anchor-1" 440 -120 basechar 0
AnchorPoint: "Anchor-0" 830 1060 basechar 0
LayerCount: 2
Back
Fore
SplineSet
1164 539 m 1,0,1
 1090 508 1090 508 1020.5 485 c 128,-1,2
 951 462 951 462 871 454 c 1,3,4
 627 192 627 192 492 85.5 c 128,-1,5
 357 -21 357 -21 215.5 -90.5 c 128,-1,6
 74 -160 74 -160 6 -160 c 0,7,8
 -57 -160 -57 -160 -88.5 -127.5 c 128,-1,9
 -120 -95 -120 -95 -120 -44 c 0,10,11
 -120 49 -120 49 -18 71.5 c 128,-1,12
 84 94 84 94 208.5 148 c 128,-1,13
 333 202 333 202 448.5 283 c 128,-1,14
 564 364 564 364 668 473 c 1,15,16
 620 492 620 492 593 525 c 128,-1,17
 566 558 566 558 566 601 c 0,18,19
 566 672 566 672 614.5 721.5 c 128,-1,20
 663 771 663 771 745 771 c 0,21,22
 805 771 805 771 850 740 c 128,-1,23
 895 709 895 709 923 661 c 1,24,25
 999 667 999 667 1055 690.5 c 128,-1,26
 1111 714 1111 714 1149 737 c 2,27,-1
 1222 781 l 2,28,29
 1254 800 1254 800 1287 800 c 0,30,31
 1327 800 1327 800 1344 769.5 c 128,-1,32
 1361 739 1361 739 1361 635 c 0,33,34
 1361 515 1361 515 1313.5 393.5 c 128,-1,35
 1266 272 1266 272 1192.5 163 c 128,-1,36
 1119 54 1119 54 1048 54 c 0,37,38
 1005 54 1005 54 979.5 75.5 c 128,-1,39
 954 97 954 97 954 133 c 0,40,41
 954 180 954 180 988 219 c 128,-1,42
 1022 258 1022 258 1088.5 354.5 c 128,-1,43
 1155 451 1155 451 1164 539 c 1,0,1
EndSplineSet
EndChar

StartChar: uni0796
Encoding: 1942 1942 33
Width: 1193
GlyphClass: 2
Flags: W
AnchorPoint: "Anchor-1" 500 -340 basechar 0
AnchorPoint: "Anchor-0" 580 1060 basechar 0
LayerCount: 2
Back
Fore
SplineSet
533 380 m 1,0,1
 576 367 576 367 634 367 c 0,2,3
 709 367 709 367 762 406 c 128,-1,4
 815 445 815 445 815 506 c 0,5,6
 815 538 815 538 801.5 558.5 c 128,-1,7
 788 579 788 579 765 589 c 2,8,-1
 738 601 l 2,9,10
 702 617 702 617 683 632 c 128,-1,11
 664 647 664 647 664 679 c 0,12,13
 664 746 664 746 758 770.5 c 128,-1,14
 852 795 852 795 890 819 c 2,15,-1
 920 838 l 2,16,17
 934 847 934 847 948.5 853 c 128,-1,18
 963 859 963 859 981 859 c 0,19,20
 1017 859 1017 859 1040 836 c 128,-1,21
 1063 813 1063 813 1063 779 c 0,22,23
 1063 748 1063 748 1038 724.5 c 128,-1,24
 1013 701 1013 701 929 670 c 1,25,26
 957 660 957 660 986 613.5 c 128,-1,27
 1015 567 1015 567 1015 509 c 0,28,29
 1015 363 1015 363 888 272.5 c 128,-1,30
 761 182 761 182 580 182 c 0,31,32
 498 182 498 182 437 193 c 1,33,34
 338 140 338 140 303.5 98 c 128,-1,35
 269 56 269 56 269 13 c 0,36,37
 269 -75 269 -75 330 -107.5 c 128,-1,38
 391 -140 391 -140 543 -140 c 0,39,40
 646 -140 646 -140 721 -135.5 c 128,-1,41
 796 -131 796 -131 842 -123 c 0,42,43
 932 -107 932 -107 932 -106 c 1,44,45
 965 -106 965 -106 985.5 -123 c 128,-1,46
 1006 -140 1006 -140 1006 -176 c 0,47,48
 1006 -245 1006 -245 883 -282.5 c 128,-1,49
 760 -320 760 -320 542 -320 c 0,50,51
 317 -320 317 -320 198 -245.5 c 128,-1,52
 79 -171 79 -171 79 -32 c 0,53,54
 79 53 79 53 128 123.5 c 128,-1,55
 177 194 177 194 290 270 c 1,56,57
 266 303 266 303 266 348 c 0,58,59
 266 416 266 416 306 452.5 c 128,-1,60
 346 489 346 489 417 489 c 0,61,62
 456 489 456 489 488 458 c 128,-1,63
 520 427 520 427 533 380 c 1,0,1
406 830 m 1024,64,-1
EndSplineSet
EndChar

StartChar: uni0797
Encoding: 1943 1943 34
Width: 1322
GlyphClass: 2
Flags: W
AnchorPoint: "Anchor-1" 560 -120 basechar 0
AnchorPoint: "Anchor-0" 540 1060 basechar 0
LayerCount: 2
Back
Fore
SplineSet
430 290 m 1,0,1
 420 281 420 281 389 255 c 128,-1,2
 358 229 358 229 358 211 c 0,3,4
 358 198 358 198 411 150 c 128,-1,5
 464 102 464 102 464 48 c 0,6,7
 464 -18 464 -18 403 -97.5 c 128,-1,8
 342 -177 342 -177 211.5 -248.5 c 128,-1,9
 81 -320 81 -320 26 -320 c 0,10,11
 -37 -320 -37 -320 -68.5 -292.5 c 128,-1,12
 -100 -265 -100 -265 -100 -214 c 0,13,14
 -100 -125 -100 -125 6 -97 c 128,-1,15
 112 -69 112 -69 181.5 -31 c 128,-1,16
 251 7 251 7 251 46 c 0,17,18
 251 67 251 67 205.5 112.5 c 128,-1,19
 160 158 160 158 160 190 c 256,20,21
 160 222 160 222 183 260 c 128,-1,22
 206 298 206 298 266 360.5 c 128,-1,23
 326 423 326 423 420.5 500 c 128,-1,24
 515 577 515 577 680.5 691.5 c 128,-1,25
 846 806 846 806 1037.5 923 c 128,-1,26
 1229 1040 1229 1040 1264 1054 c 128,-1,27
 1299 1068 1299 1068 1339 1068 c 0,28,29
 1380 1068 1380 1068 1399.5 1049.5 c 128,-1,30
 1419 1031 1419 1031 1419 1000 c 0,31,32
 1419 949 1419 949 1327 897 c 2,33,-1
 1253 855 l 2,34,35
 1171 808 1171 808 1066 745.5 c 128,-1,36
 961 683 961 683 867 625 c 1,37,38
 945 610 945 610 993.5 547 c 128,-1,39
 1042 484 1042 484 1042 395 c 0,40,41
 1042 278 1042 278 940 200.5 c 128,-1,42
 838 123 838 123 722 123 c 0,43,44
 619 123 619 123 545.5 164 c 128,-1,45
 472 205 472 205 430 290 c 1,0,1
595 402 m 1,46,47
 608 357 608 357 636.5 325 c 128,-1,48
 665 293 665 293 726 293 c 0,49,50
 776 293 776 293 814 323 c 128,-1,51
 852 353 852 353 852 402 c 0,52,53
 852 435 852 435 829 458.5 c 128,-1,54
 806 482 806 482 758 482 c 0,55,56
 684 482 684 482 595 402 c 1,46,47
706 980 m 1024,57,-1
EndSplineSet
EndChar

StartChar: uni07A6
Encoding: 1958 1958 49
Width: 0
GlyphClass: 4
Flags: W
AnchorPoint: "Anchor-0" 340 900 mark 0
LayerCount: 2
Back
Fore
SplineSet
705.5 1312.5 m 128,-1,1
 722 1295 722 1295 722 1269 c 0,2,3
 722 1209 722 1209 640.5 1145.5 c 128,-1,4
 559 1082 559 1082 377 981 c 128,-1,5
 195 880 195 880 92 880 c 0,6,7
 52 880 52 880 26 898.5 c 128,-1,8
 0 917 0 917 0 952 c 0,9,10
 0 1024 0 1024 104 1049.5 c 128,-1,11
 208 1075 208 1075 346.5 1152 c 128,-1,12
 485 1229 485 1229 539 1279.5 c 128,-1,13
 593 1330 593 1330 651 1330 c 0,14,0
 689 1330 689 1330 705.5 1312.5 c 128,-1,1
EndSplineSet
EndChar

StartChar: uni07A7
Encoding: 1959 1959 50
Width: 0
GlyphClass: 4
Flags: W
AnchorPoint: "Anchor-0" 440 900 mark 0
LayerCount: 2
Back
Fore
SplineSet
767 1292 m 128,-1,1
 783 1274 783 1274 783 1246 c 0,2,3
 783 1165 783 1165 547.5 1022.5 c 128,-1,4
 312 880 312 880 208 880 c 0,5,6
 169 880 169 880 145 899 c 128,-1,7
 121 918 121 918 121 950 c 0,8,9
 121 1007 121 1007 197 1037 c 128,-1,10
 273 1067 273 1067 397.5 1131 c 128,-1,11
 522 1195 522 1195 592.5 1252.5 c 128,-1,12
 663 1310 663 1310 713 1310 c 0,13,0
 751 1310 751 1310 767 1292 c 128,-1,1
186 1344 m 2,14,15
 277 1385 277 1385 352 1430.5 c 128,-1,16
 427 1476 427 1476 486 1521.5 c 128,-1,17
 545 1567 545 1567 591 1567 c 0,18,19
 629 1567 629 1567 644.5 1549.5 c 128,-1,20
 660 1532 660 1532 660 1503 c 0,21,22
 660 1423 660 1423 425 1280.5 c 128,-1,23
 190 1138 190 1138 85 1138 c 0,24,25
 45 1138 45 1138 22.5 1156 c 128,-1,26
 0 1174 0 1174 0 1207 c 0,27,28
 0 1258 0 1258 49.5 1281.5 c 128,-1,29
 99 1305 99 1305 106 1308 c 2,30,-1
 186 1344 l 2,14,15
EndSplineSet
EndChar

StartChar: uni07A8
Encoding: 1960 1960 51
Width: 0
GlyphClass: 4
Flags: W
AnchorPoint: "Anchor-1" 220 -100 mark 0
LayerCount: 2
Back
Fore
SplineSet
576.5 -177.5 m 128,-1,1
 593 -195 593 -195 593 -221 c 0,2,3
 593 -281 593 -281 511.5 -344.5 c 128,-1,4
 430 -408 430 -408 248 -509 c 128,-1,5
 66 -610 66 -610 -37 -610 c 0,6,7
 -77 -610 -77 -610 -103 -591.5 c 128,-1,8
 -129 -573 -129 -573 -129 -538 c 0,9,10
 -129 -466 -129 -466 -25 -440.5 c 128,-1,11
 79 -415 79 -415 217.5 -338 c 128,-1,12
 356 -261 356 -261 410 -210.5 c 128,-1,13
 464 -160 464 -160 522 -160 c 0,14,0
 560 -160 560 -160 576.5 -177.5 c 128,-1,1
EndSplineSet
EndChar

StartChar: uni07A9
Encoding: 1961 1961 52
Width: 0
GlyphClass: 4
Flags: W
AnchorPoint: "Anchor-1" 300 -100 mark 0
LayerCount: 2
Back
Fore
SplineSet
767 -435 m 128,-1,1
 783 -453 783 -453 783 -481 c 0,2,3
 783 -562 783 -562 547.5 -704.5 c 128,-1,4
 312 -847 312 -847 208 -847 c 0,5,6
 169 -847 169 -847 145 -828 c 128,-1,7
 121 -809 121 -809 121 -777 c 0,8,9
 121 -720 121 -720 197 -690 c 128,-1,10
 273 -660 273 -660 397.5 -596 c 128,-1,11
 522 -532 522 -532 592.5 -474.5 c 128,-1,12
 663 -417 663 -417 713 -417 c 0,13,0
 751 -417 751 -417 767 -435 c 128,-1,1
186 -383 m 2,14,15
 277 -342 277 -342 352 -296.5 c 128,-1,16
 427 -251 427 -251 486 -205.5 c 128,-1,17
 545 -160 545 -160 591 -160 c 0,18,19
 629 -160 629 -160 644.5 -177.5 c 128,-1,20
 660 -195 660 -195 660 -224 c 0,21,22
 660 -304 660 -304 425 -446.5 c 128,-1,23
 190 -589 190 -589 85 -589 c 0,24,25
 45 -589 45 -589 22.5 -571 c 128,-1,26
 0 -553 0 -553 0 -520 c 0,27,28
 0 -469 0 -469 49.5 -445.5 c 128,-1,29
 99 -422 99 -422 106 -419 c 2,30,-1
 186 -383 l 2,14,15
EndSplineSet
EndChar

StartChar: uni07AA
Encoding: 1962 1962 53
Width: 0
GlyphClass: 4
Flags: W
AnchorPoint: "Anchor-0" 260 900 mark 0
LayerCount: 2
Back
Fore
SplineSet
429 1210 m 1,0,1
 414 1221 414 1221 369 1229 c 128,-1,2
 324 1237 324 1237 294 1237 c 0,3,4
 265 1237 265 1237 240.5 1236 c 128,-1,5
 216 1235 216 1235 190 1235 c 0,6,7
 134 1235 134 1235 107.5 1251.5 c 128,-1,8
 81 1268 81 1268 81 1311 c 0,9,10
 81 1357 81 1357 132 1380 c 128,-1,11
 183 1403 183 1403 278 1403 c 0,12,13
 409 1403 409 1403 509 1363 c 128,-1,14
 609 1323 609 1323 609 1265 c 0,15,16
 609 1132 609 1132 407 1006 c 128,-1,17
 205 880 205 880 114 880 c 0,18,19
 4 880 4 880 4 959 c 0,20,21
 4 1026 4 1026 77.5 1050 c 128,-1,22
 151 1074 151 1074 265 1116 c 128,-1,23
 379 1158 379 1158 429 1210 c 1,0,1
509 1437 m 1024,24,-1
EndSplineSet
EndChar

StartChar: uni07AB
Encoding: 1963 1963 54
Width: 0
GlyphClass: 4
Flags: W
AnchorPoint: "Anchor-0" 600 900 mark 0
LayerCount: 2
Back
Fore
SplineSet
429 1210 m 1,0,1
 414 1221 414 1221 369 1229 c 128,-1,2
 324 1237 324 1237 294 1237 c 0,3,4
 265 1237 265 1237 240.5 1236 c 128,-1,5
 216 1235 216 1235 190 1235 c 0,6,7
 134 1235 134 1235 107.5 1251.5 c 128,-1,8
 81 1268 81 1268 81 1311 c 0,9,10
 81 1357 81 1357 132 1380 c 128,-1,11
 183 1403 183 1403 278 1403 c 0,12,13
 409 1403 409 1403 509 1363 c 128,-1,14
 609 1323 609 1323 609 1265 c 0,15,16
 609 1132 609 1132 407 1006 c 128,-1,17
 205 880 205 880 114 880 c 0,18,19
 4 880 4 880 4 959 c 0,20,21
 4 1026 4 1026 77.5 1050 c 128,-1,22
 151 1074 151 1074 265 1116 c 128,-1,23
 379 1158 379 1158 429 1210 c 1,0,1
1029 1210 m 1,24,25
 1014 1221 1014 1221 969 1229 c 128,-1,26
 924 1237 924 1237 894 1237 c 0,27,28
 865 1237 865 1237 840.5 1236 c 128,-1,29
 816 1235 816 1235 790 1235 c 0,30,31
 734 1235 734 1235 707.5 1251.5 c 128,-1,32
 681 1268 681 1268 681 1311 c 0,33,34
 681 1357 681 1357 732 1380 c 128,-1,35
 783 1403 783 1403 878 1403 c 0,36,37
 1009 1403 1009 1403 1109 1363 c 128,-1,38
 1209 1323 1209 1323 1209 1265 c 0,39,40
 1209 1132 1209 1132 1007 1006 c 128,-1,41
 805 880 805 880 714 880 c 0,42,43
 604 880 604 880 604 959 c 0,44,45
 604 1026 604 1026 677.5 1050 c 128,-1,46
 751 1074 751 1074 865 1116 c 128,-1,47
 979 1158 979 1158 1029 1210 c 1,24,25
589 1437 m 1024,48,-1
EndSplineSet
EndChar

StartChar: uni07AC
Encoding: 1964 1964 55
Width: 0
GlyphClass: 4
Flags: W
AnchorPoint: "Anchor-0" 320 900 mark 0
LayerCount: 2
Back
Fore
SplineSet
200 1098 m 1,0,1
 228 1076 228 1076 262.5 1066 c 128,-1,2
 297 1056 297 1056 338 1056 c 0,3,4
 359 1056 359 1056 387.5 1061 c 128,-1,5
 416 1066 416 1066 438 1066 c 0,6,7
 477 1066 477 1066 497 1049.5 c 128,-1,8
 517 1033 517 1033 517 978 c 0,9,10
 517 930 517 930 460.5 905 c 128,-1,11
 404 880 404 880 303 880 c 0,12,13
 175 880 175 880 87.5 943 c 128,-1,14
 0 1006 0 1006 0 1082 c 0,15,16
 0 1145 0 1145 62 1208 c 128,-1,17
 124 1271 124 1271 238 1354 c 128,-1,18
 352 1437 352 1437 439 1437 c 0,19,20
 474 1437 474 1437 497 1420.5 c 128,-1,21
 520 1404 520 1404 520 1367 c 0,22,23
 520 1345 520 1345 509 1328.5 c 128,-1,24
 498 1312 498 1312 485 1303 c 2,25,-1
 370 1234 l 2,26,27
 296 1190 296 1190 254 1157 c 128,-1,28
 212 1124 212 1124 200 1098 c 1,0,1
EndSplineSet
EndChar

StartChar: uni07AD
Encoding: 1965 1965 56
Width: 0
GlyphClass: 4
Flags: W
AnchorPoint: "Anchor-0" 600 900 mark 0
LayerCount: 2
Back
Fore
SplineSet
200 1098 m 1,0,1
 228 1076 228 1076 262.5 1066 c 128,-1,2
 297 1056 297 1056 338 1056 c 0,3,4
 359 1056 359 1056 387.5 1061 c 128,-1,5
 416 1066 416 1066 438 1066 c 0,6,7
 477 1066 477 1066 497 1049.5 c 128,-1,8
 517 1033 517 1033 517 978 c 0,9,10
 517 930 517 930 460.5 905 c 128,-1,11
 404 880 404 880 303 880 c 0,12,13
 175 880 175 880 87.5 943 c 128,-1,14
 0 1006 0 1006 0 1082 c 0,15,16
 0 1145 0 1145 62 1208 c 128,-1,17
 124 1271 124 1271 238 1354 c 128,-1,18
 352 1437 352 1437 439 1437 c 0,19,20
 474 1437 474 1437 497 1420.5 c 128,-1,21
 520 1404 520 1404 520 1367 c 0,22,23
 520 1345 520 1345 509 1328.5 c 128,-1,24
 498 1312 498 1312 485 1303 c 2,25,-1
 370 1234 l 2,26,27
 296 1190 296 1190 254 1157 c 128,-1,28
 212 1124 212 1124 200 1098 c 1,0,1
790 1098 m 1,29,30
 818 1076 818 1076 852.5 1066 c 128,-1,31
 887 1056 887 1056 928 1056 c 0,32,33
 949 1056 949 1056 977.5 1061 c 128,-1,34
 1006 1066 1006 1066 1028 1066 c 0,35,36
 1067 1066 1067 1066 1087 1049.5 c 128,-1,37
 1107 1033 1107 1033 1107 978 c 0,38,39
 1107 930 1107 930 1050.5 905 c 128,-1,40
 994 880 994 880 893 880 c 0,41,42
 765 880 765 880 677.5 943 c 128,-1,43
 590 1006 590 1006 590 1082 c 0,44,45
 590 1145 590 1145 652 1208 c 128,-1,46
 714 1271 714 1271 828 1354 c 128,-1,47
 942 1437 942 1437 1029 1437 c 0,48,49
 1064 1437 1064 1437 1087 1420.5 c 128,-1,50
 1110 1404 1110 1404 1110 1367 c 0,51,52
 1110 1345 1110 1345 1099 1328.5 c 128,-1,53
 1088 1312 1088 1312 1075 1303 c 2,54,-1
 960 1234 l 2,55,56
 886 1190 886 1190 844 1157 c 128,-1,57
 802 1124 802 1124 790 1098 c 1,29,30
EndSplineSet
EndChar

StartChar: uni07AE
Encoding: 1966 1966 57
Width: 0
GlyphClass: 4
Flags: W
AnchorPoint: "Anchor-0" 460 900 mark 0
LayerCount: 2
Back
Fore
SplineSet
580 1098 m 1,0,1
 608 1076 608 1076 642.5 1066 c 128,-1,2
 677 1056 677 1056 718 1056 c 0,3,4
 739 1056 739 1056 767.5 1061 c 128,-1,5
 796 1066 796 1066 818 1066 c 0,6,7
 857 1066 857 1066 877 1049.5 c 128,-1,8
 897 1033 897 1033 897 978 c 0,9,10
 897 930 897 930 840.5 905 c 128,-1,11
 784 880 784 880 683 880 c 0,12,13
 590 880 590 880 515.5 914.5 c 128,-1,14
 441 949 441 949 405 1006 c 1,15,16
 301 940 301 940 231 910 c 128,-1,17
 161 880 161 880 114 880 c 0,18,19
 4 880 4 880 4 959 c 0,20,21
 4 1026 4 1026 77.5 1050 c 128,-1,22
 151 1074 151 1074 265 1116 c 128,-1,23
 379 1158 379 1158 429 1210 c 1,24,25
 414 1221 414 1221 369 1229 c 128,-1,26
 324 1237 324 1237 294 1237 c 0,27,28
 265 1237 265 1237 240.5 1236 c 128,-1,29
 216 1235 216 1235 190 1235 c 0,30,31
 134 1235 134 1235 107.5 1251.5 c 128,-1,32
 81 1268 81 1268 81 1311 c 0,33,34
 81 1357 81 1357 132 1380 c 128,-1,35
 183 1403 183 1403 278 1403 c 0,36,37
 371 1403 371 1403 454 1381 c 128,-1,38
 537 1359 537 1359 576 1325 c 1,39,40
 645 1379 645 1379 708 1408 c 128,-1,41
 771 1437 771 1437 819 1437 c 0,42,43
 854 1437 854 1437 877 1420.5 c 128,-1,44
 900 1404 900 1404 900 1367 c 0,45,46
 900 1345 900 1345 889 1328.5 c 128,-1,47
 878 1312 878 1312 865 1303 c 2,48,-1
 750 1234 l 2,49,50
 676 1190 676 1190 634 1157 c 128,-1,51
 592 1124 592 1124 580 1098 c 1,0,1
EndSplineSet
EndChar

StartChar: uni07AF
Encoding: 1967 1967 58
Width: 0
GlyphClass: 4
Flags: W
AnchorPoint: "Anchor-0" 360 900 mark 0
LayerCount: 2
Back
Fore
SplineSet
78 945.5 m 128,-1,1
 0 1011 0 1011 0 1125 c 0,2,3
 0 1264 0 1264 105.5 1409 c 128,-1,4
 211 1554 211 1554 374.5 1648.5 c 128,-1,5
 538 1743 538 1743 669 1743 c 0,6,7
 780 1743 780 1743 841.5 1698.5 c 128,-1,8
 903 1654 903 1654 903 1577 c 0,9,10
 903 1431 903 1431 804 1335.5 c 128,-1,11
 705 1240 705 1240 658 1240 c 0,12,13
 625 1240 625 1240 600 1264.5 c 128,-1,14
 575 1289 575 1289 575 1323 c 0,15,16
 575 1368 575 1368 604 1394 c 128,-1,17
 633 1420 633 1420 676 1457.5 c 128,-1,18
 719 1495 719 1495 719 1533 c 0,19,20
 719 1551 719 1551 707 1563.5 c 128,-1,21
 695 1576 695 1576 669 1576 c 0,22,23
 574 1576 574 1576 461.5 1504.5 c 128,-1,24
 349 1433 349 1433 266.5 1327.5 c 128,-1,25
 184 1222 184 1222 184 1157 c 0,26,27
 184 1101 184 1101 211.5 1074 c 128,-1,28
 239 1047 239 1047 290 1047 c 0,29,30
 381 1047 381 1047 454.5 1081.5 c 128,-1,31
 528 1116 528 1116 553 1116 c 0,32,33
 582 1116 582 1116 598.5 1100.5 c 128,-1,34
 615 1085 615 1085 615 1057 c 0,35,36
 615 991 615 991 522.5 935.5 c 128,-1,37
 430 880 430 880 282 880 c 0,38,0
 156 880 156 880 78 945.5 c 128,-1,1
EndSplineSet
EndChar

StartChar: uni07B0
Encoding: 1968 1968 59
Width: 0
GlyphClass: 4
Flags: W
AnchorPoint: "Anchor-0" 280 900 mark 0
LayerCount: 2
Back
Fore
SplineSet
70 947 m 128,-1,1
 0 1014 0 1014 0 1123 c 0,2,3
 0 1260 0 1260 124 1371 c 128,-1,4
 248 1482 248 1482 411 1482 c 0,5,6
 527 1482 527 1482 584.5 1429.5 c 128,-1,7
 642 1377 642 1377 642 1275 c 0,8,9
 642 1112 642 1112 524 996 c 128,-1,10
 406 880 406 880 254 880 c 0,11,0
 140 880 140 880 70 947 c 128,-1,1
440 1297 m 128,-1,13
 417 1322 417 1322 386 1322 c 0,14,15
 292 1322 292 1322 236 1268 c 128,-1,16
 180 1214 180 1214 180 1132 c 0,17,18
 180 1081 180 1081 201.5 1061.5 c 128,-1,19
 223 1042 223 1042 267 1042 c 0,20,21
 345 1042 345 1042 404 1100 c 128,-1,22
 463 1158 463 1158 463 1239 c 0,23,12
 463 1272 463 1272 440 1297 c 128,-1,13
EndSplineSet
EndChar

StartChar: uni07B1
Encoding: 1969 1969 60
Width: 968
GlyphClass: 2
Flags: W
AnchorPoint: "Anchor-1" 560 -340 basechar 0
AnchorPoint: "Anchor-0" 540 1060 basechar 0
LayerCount: 2
Back
Fore
SplineSet
822 735 m 128,-1,1
 908 670 908 670 908 565 c 0,2,3
 908 436 908 436 789.5 325.5 c 128,-1,4
 671 215 671 215 455.5 101.5 c 128,-1,5
 240 -12 240 -12 240 -86 c 0,6,7
 240 -147 240 -147 296 -171 c 128,-1,8
 352 -195 352 -195 463 -195 c 0,9,10
 547 -195 547 -195 602.5 -171.5 c 128,-1,11
 658 -148 658 -148 702 -118 c 128,-1,12
 746 -88 746 -88 779 -88 c 0,13,14
 813 -88 813 -88 833 -107.5 c 128,-1,15
 853 -127 853 -127 853 -163 c 0,16,17
 853 -237 853 -237 734.5 -298.5 c 128,-1,18
 616 -360 616 -360 452 -360 c 0,19,20
 278 -360 278 -360 169 -289.5 c 128,-1,21
 60 -219 60 -219 60 -96 c 0,22,23
 60 34 60 34 266 156 c 128,-1,24
 472 278 472 278 487 287 c 1,25,26
 359 313 359 313 299.5 371 c 128,-1,27
 240 429 240 429 240 518 c 0,28,29
 240 635 240 635 355 717.5 c 128,-1,30
 470 800 470 800 613 800 c 0,31,0
 736 800 736 800 822 735 c 128,-1,1
486.5 600 m 128,-1,33
 429 565 429 565 429 515 c 0,34,35
 429 471 429 471 488.5 448 c 128,-1,36
 548 425 548 425 666 422 c 1,37,38
 694 450 694 450 706 480.5 c 128,-1,39
 718 511 718 511 718 556 c 0,40,41
 718 586 718 586 690 610.5 c 128,-1,42
 662 635 662 635 605 635 c 0,43,32
 544 635 544 635 486.5 600 c 128,-1,33
EndSplineSet
EndChar

StartChar: quoteleft
Encoding: 8216 8216 61
Width: 700
GlyphClass: 2
Flags: W
LayerCount: 2
Back
Fore
SplineSet
151.5 1082 m 128,-1,1
 115 1121 115 1121 115 1186 c 0,2,3
 115 1247 115 1247 171.5 1344.5 c 128,-1,4
 228 1442 228 1442 298 1513.5 c 128,-1,5
 368 1585 368 1585 410 1585 c 0,6,7
 434 1585 434 1585 447 1571 c 128,-1,8
 460 1557 460 1557 460 1540 c 0,9,10
 460 1519 460 1519 444 1502.5 c 128,-1,11
 428 1486 428 1486 380.5 1438 c 128,-1,12
 333 1390 333 1390 310 1333 c 1,13,14
 361 1330 361 1330 392.5 1295.5 c 128,-1,15
 424 1261 424 1261 424 1213 c 0,16,17
 424 1147 424 1147 369.5 1095 c 128,-1,18
 315 1043 315 1043 247 1043 c 0,19,0
 188 1043 188 1043 151.5 1082 c 128,-1,1
EndSplineSet
EndChar

StartChar: quoteright
Encoding: 8217 8217 62
Width: 700
GlyphClass: 2
Flags: W
LayerCount: 2
Back
Fore
SplineSet
593.5 1546 m 128,-1,1
 630 1507 630 1507 630 1442 c 0,2,3
 630 1381 630 1381 573.5 1283.5 c 128,-1,4
 517 1186 517 1186 447 1114.5 c 128,-1,5
 377 1043 377 1043 335 1043 c 0,6,7
 311 1043 311 1043 298 1057 c 128,-1,8
 285 1071 285 1071 285 1088 c 0,9,10
 285 1109 285 1109 301 1125.5 c 128,-1,11
 317 1142 317 1142 364.5 1190 c 128,-1,12
 412 1238 412 1238 435 1295 c 1,13,14
 384 1298 384 1298 352.5 1332.5 c 128,-1,15
 321 1367 321 1367 321 1415 c 0,16,17
 321 1481 321 1481 375.5 1533 c 128,-1,18
 430 1585 430 1585 498 1585 c 0,19,0
 557 1585 557 1585 593.5 1546 c 128,-1,1
EndSplineSet
EndChar

StartChar: quotedblleft
Encoding: 8220 8220 63
Width: 1150
GlyphClass: 2
Flags: W
LayerCount: 2
Back
Fore
SplineSet
151.5 1082 m 128,-1,1
 115 1121 115 1121 115 1186 c 0,2,3
 115 1247 115 1247 171.5 1344.5 c 128,-1,4
 228 1442 228 1442 298 1513.5 c 128,-1,5
 368 1585 368 1585 410 1585 c 0,6,7
 434 1585 434 1585 447 1571 c 128,-1,8
 460 1557 460 1557 460 1540 c 0,9,10
 460 1519 460 1519 444 1502.5 c 128,-1,11
 428 1486 428 1486 380.5 1438 c 128,-1,12
 333 1390 333 1390 310 1333 c 1,13,14
 361 1330 361 1330 392.5 1295.5 c 128,-1,15
 424 1261 424 1261 424 1213 c 0,16,17
 424 1147 424 1147 369.5 1095 c 128,-1,18
 315 1043 315 1043 247 1043 c 0,19,0
 188 1043 188 1043 151.5 1082 c 128,-1,1
601.5 1082 m 128,-1,21
 565 1121 565 1121 565 1186 c 0,22,23
 565 1247 565 1247 621.5 1344.5 c 128,-1,24
 678 1442 678 1442 748 1513.5 c 128,-1,25
 818 1585 818 1585 860 1585 c 0,26,27
 884 1585 884 1585 897 1571 c 128,-1,28
 910 1557 910 1557 910 1540 c 0,29,30
 910 1519 910 1519 894 1502.5 c 128,-1,31
 878 1486 878 1486 830.5 1438 c 128,-1,32
 783 1390 783 1390 760 1333 c 1,33,34
 811 1330 811 1330 842.5 1295.5 c 128,-1,35
 874 1261 874 1261 874 1213 c 0,36,37
 874 1147 874 1147 819.5 1095 c 128,-1,38
 765 1043 765 1043 697 1043 c 0,39,20
 638 1043 638 1043 601.5 1082 c 128,-1,21
EndSplineSet
EndChar

StartChar: quotedblright
Encoding: 8221 8221 64
Width: 1150
GlyphClass: 2
Flags: W
LayerCount: 2
Back
Fore
SplineSet
593.5 1546 m 128,-1,1
 630 1507 630 1507 630 1442 c 0,2,3
 630 1381 630 1381 573.5 1283.5 c 128,-1,4
 517 1186 517 1186 447 1114.5 c 128,-1,5
 377 1043 377 1043 335 1043 c 0,6,7
 311 1043 311 1043 298 1057 c 128,-1,8
 285 1071 285 1071 285 1088 c 0,9,10
 285 1109 285 1109 301 1125.5 c 128,-1,11
 317 1142 317 1142 364.5 1190 c 128,-1,12
 412 1238 412 1238 435 1295 c 1,13,14
 384 1298 384 1298 352.5 1332.5 c 128,-1,15
 321 1367 321 1367 321 1415 c 0,16,17
 321 1481 321 1481 375.5 1533 c 128,-1,18
 430 1585 430 1585 498 1585 c 0,19,0
 557 1585 557 1585 593.5 1546 c 128,-1,1
1043.5 1546 m 128,-1,21
 1080 1507 1080 1507 1080 1442 c 0,22,23
 1080 1381 1080 1381 1023.5 1283.5 c 128,-1,24
 967 1186 967 1186 897 1114.5 c 128,-1,25
 827 1043 827 1043 785 1043 c 0,26,27
 761 1043 761 1043 748 1057 c 128,-1,28
 735 1071 735 1071 735 1088 c 0,29,30
 735 1109 735 1109 751 1125.5 c 128,-1,31
 767 1142 767 1142 814.5 1190 c 128,-1,32
 862 1238 862 1238 885 1295 c 1,33,34
 834 1298 834 1298 802.5 1332.5 c 128,-1,35
 771 1367 771 1367 771 1415 c 0,36,37
 771 1481 771 1481 825.5 1533 c 128,-1,38
 880 1585 880 1585 948 1585 c 0,39,20
 1007 1585 1007 1585 1043.5 1546 c 128,-1,21
EndSplineSet
EndChar

StartChar: uni25CC
Encoding: 9676 9676 65
Width: 1024
GlyphClass: 2
Flags: W
LayerCount: 2
Back
Fore
SplineSet
490 976.5 m 128,-1,1
 504 992 504 992 524 992 c 256,2,3
 544 992 544 992 559 976.5 c 128,-1,4
 574 961 574 961 574 942 c 256,5,6
 574 923 574 923 559 908 c 128,-1,7
 544 893 544 893 524 893 c 256,8,9
 504 893 504 893 490 908 c 128,-1,10
 476 923 476 923 476 942 c 256,11,0
 476 961 476 961 490 976.5 c 128,-1,1
313 937 m 128,-1,13
 328 952 328 952 347 952 c 256,14,15
 366 952 366 952 381 937 c 128,-1,16
 396 922 396 922 396 903 c 256,17,18
 396 884 396 884 381 869 c 128,-1,19
 366 854 366 854 347 854 c 256,20,21
 328 854 328 854 313 869 c 128,-1,22
 298 884 298 884 298 903 c 256,23,12
 298 922 298 922 313 937 c 128,-1,13
674 933 m 128,-1,25
 689 947 689 947 708 947 c 256,26,27
 727 947 727 947 742 933 c 128,-1,28
 757 919 757 919 757 899 c 256,29,30
 757 879 757 879 742 864.5 c 128,-1,31
 727 850 727 850 708 850 c 256,32,33
 689 850 689 850 674 865 c 128,-1,34
 659 880 659 880 659 899 c 0,35,24
 659 919 659 919 674 933 c 128,-1,25
177.5 841 m 128,-1,37
 192 855 192 855 212 855 c 256,38,39
 232 855 232 855 246 841 c 128,-1,40
 260 827 260 827 260 807 c 256,41,42
 260 787 260 787 246 772.5 c 128,-1,43
 232 758 232 758 212 758 c 0,44,45
 193 758 193 758 178 772.5 c 128,-1,46
 163 787 163 787 163 807 c 256,47,36
 163 827 163 827 177.5 841 c 128,-1,37
823.5 824 m 128,-1,49
 838 839 838 839 858 839 c 256,50,51
 878 839 878 839 892 824 c 128,-1,52
 906 809 906 809 906 790 c 256,53,54
 906 771 906 771 892 756 c 128,-1,55
 878 741 878 741 858 741 c 256,56,57
 838 741 838 741 823.5 756 c 128,-1,58
 809 771 809 771 809 790 c 256,59,48
 809 809 809 809 823.5 824 c 128,-1,49
80 700 m 128,-1,61
 94 715 94 715 114 715 c 256,62,63
 134 715 134 715 149 700 c 128,-1,64
 164 685 164 685 164 666 c 256,65,66
 164 647 164 647 149 632 c 128,-1,67
 134 617 134 617 114 617 c 256,68,69
 94 617 94 617 80 632 c 128,-1,70
 66 647 66 647 66 666 c 256,71,60
 66 685 66 685 80 700 c 128,-1,61
910.5 681 m 128,-1,73
 925 695 925 695 945 695 c 256,74,75
 965 695 965 695 979 681 c 128,-1,76
 993 667 993 667 993 647 c 256,77,78
 993 627 993 627 979 612.5 c 128,-1,79
 965 598 965 598 945 598 c 256,80,81
 925 598 925 598 910.5 612.5 c 128,-1,82
 896 627 896 627 896 647 c 256,83,72
 896 667 896 667 910.5 681 c 128,-1,73
934 529 m 128,-1,85
 949 544 949 544 968 544 c 256,86,87
 987 544 987 544 1002 529 c 128,-1,88
 1017 514 1017 514 1017 495 c 256,89,90
 1017 476 1017 476 1002 461 c 128,-1,91
 987 446 987 446 968 446 c 256,92,93
 949 446 949 446 934 461 c 128,-1,94
 919 476 919 476 919 495 c 256,95,84
 919 514 919 514 934 529 c 128,-1,85
43.5 529 m 128,-1,97
 58 544 58 544 78 544 c 256,98,99
 98 544 98 544 112 529 c 128,-1,100
 126 514 126 514 126 495 c 256,101,102
 126 476 126 476 112 461 c 128,-1,103
 98 446 98 446 78 446 c 256,104,105
 58 446 58 446 43.5 461 c 128,-1,106
 29 476 29 476 29 495 c 256,107,96
 29 514 29 514 43.5 529 c 128,-1,97
900 356 m 128,-1,109
 914 370 914 370 934 370 c 256,110,111
 954 370 954 370 968.5 356 c 128,-1,112
 983 342 983 342 983 322 c 256,113,114
 983 302 983 302 968.5 287.5 c 128,-1,115
 954 273 954 273 934 273 c 256,116,117
 914 273 914 273 900 287.5 c 128,-1,118
 886 302 886 302 886 322 c 256,119,108
 886 342 886 342 900 356 c 128,-1,109
88.5 339.5 m 128,-1,121
 103 354 103 354 123 354 c 256,122,123
 143 354 143 354 157 339.5 c 128,-1,124
 171 325 171 325 171 305 c 256,125,126
 171 285 171 285 157 271 c 128,-1,127
 143 257 143 257 123 257 c 256,128,129
 103 257 103 257 88.5 271 c 128,-1,130
 74 285 74 285 74 305 c 256,131,120
 74 325 74 325 88.5 339.5 c 128,-1,121
806 215.5 m 128,-1,133
 821 230 821 230 840 230 c 256,134,135
 859 230 859 230 874 215.5 c 128,-1,136
 889 201 889 201 889 181 c 256,137,138
 889 161 889 161 874 147 c 128,-1,139
 859 133 859 133 840 133 c 256,140,141
 821 133 821 133 806 147 c 128,-1,142
 791 161 791 161 791 181 c 256,143,132
 791 201 791 201 806 215.5 c 128,-1,133
193 198 m 128,-1,145
 208 213 208 213 227 213 c 256,146,147
 246 213 246 213 261 198 c 128,-1,148
 276 183 276 183 276 164 c 256,149,150
 276 145 276 145 261 130 c 128,-1,151
 246 115 246 115 227 115 c 256,152,153
 208 115 208 115 193 130 c 128,-1,154
 178 145 178 145 178 164 c 256,155,144
 178 183 178 183 193 198 c 128,-1,145
667.5 119 m 128,-1,157
 682 134 682 134 702 134 c 256,158,159
 722 134 722 134 736.5 119 c 128,-1,160
 751 104 751 104 751 85 c 256,161,162
 751 66 751 66 736.5 51 c 128,-1,163
 722 36 722 36 702 36 c 0,164,165
 683 36 683 36 668 51 c 128,-1,166
 653 66 653 66 653 85 c 256,167,156
 653 104 653 104 667.5 119 c 128,-1,157
333 111 m 128,-1,169
 348 125 348 125 368 125 c 256,170,171
 388 125 388 125 402 111 c 128,-1,172
 416 97 416 97 416 77 c 0,173,174
 416 58 416 58 402 43 c 128,-1,175
 388 28 388 28 368 28 c 256,176,177
 348 28 348 28 333 43 c 128,-1,178
 318 58 318 58 318 77 c 0,179,168
 318 97 318 97 333 111 c 128,-1,169
490 83 m 128,-1,181
 504 98 504 98 524 98 c 256,182,183
 544 98 544 98 559 83 c 128,-1,184
 574 68 574 68 574 49 c 256,185,186
 574 30 574 30 559 15 c 128,-1,187
 544 0 544 0 524 0 c 256,188,189
 504 0 504 0 490 15 c 128,-1,190
 476 30 476 30 476 49 c 256,191,180
 476 68 476 68 490 83 c 128,-1,181
EndSplineSet
EndChar

StartChar: uniFDF2
Encoding: 65010 65010 66
Width: 1907
GlyphClass: 2
Flags: W
LayerCount: 2
Back
Fore
SplineSet
1778 533 m 2,0,1
 1778 440 1778 440 1774 317.5 c 128,-1,2
 1770 195 1770 195 1765 69 c 1,3,-1
 1674 53 l 1,4,5
 1672 154 1672 154 1668 263 c 128,-1,6
 1664 372 1664 372 1659 479 c 2,7,-1
 1648 682 l 2,8,9
 1642 772 1642 772 1634 905.5 c 128,-1,10
 1626 1039 1626 1039 1626 1079 c 0,11,12
 1626 1155 1626 1155 1655.5 1191 c 128,-1,13
 1685 1227 1685 1227 1750 1239 c 1,14,-1
 1816 1025 l 1,15,-1
 1767 986 l 1,16,17
 1772 893 1772 893 1775 806 c 128,-1,18
 1778 719 1778 719 1778 642 c 2,19,-1
 1778 533 l 2,0,1
1077 1291 m 1,20,21
 1099 1246 1099 1246 1108 1204.5 c 128,-1,22
 1117 1163 1117 1163 1117 1142 c 0,23,24
 1117 1088 1117 1088 1081.5 1044 c 128,-1,25
 1046 1000 1046 1000 996 1000 c 0,26,27
 979 1000 979 1000 958.5 1008 c 128,-1,28
 938 1016 938 1016 923 1033 c 1,29,30
 906 993 906 993 876 973.5 c 128,-1,31
 846 954 846 954 814 954 c 0,32,33
 769 954 769 954 741.5 982.5 c 128,-1,34
 714 1011 714 1011 714 1065 c 0,35,36
 714 1091 714 1091 721 1117 c 128,-1,37
 728 1143 728 1143 742 1169 c 1,38,-1
 781 1160 l 1,39,40
 777 1143 777 1143 774.5 1127 c 128,-1,41
 772 1111 772 1111 772 1100 c 0,42,43
 772 1043 772 1043 820 1043 c 0,44,45
 843 1043 843 1043 857 1061.5 c 128,-1,46
 871 1080 871 1080 873 1105 c 2,47,-1
 869 1183 l 1,48,-1
 926 1220 l 1,49,50
 933 1150 933 1150 953 1121 c 128,-1,51
 973 1092 973 1092 1014 1092 c 0,52,53
 1024 1092 1024 1092 1035 1100 c 128,-1,54
 1046 1108 1046 1108 1048 1116 c 0,55,56
 1046 1127 1046 1127 1038 1148 c 128,-1,57
 1030 1169 1030 1169 1016 1200 c 1,58,-1
 1013 1221 l 2,59,60
 1013 1244 1013 1244 1030.5 1265.5 c 128,-1,61
 1048 1287 1048 1287 1073 1293 c 1,62,-1
 1077 1291 l 1,20,21
935 1584 m 1,63,64
 941 1546 941 1546 945.5 1507 c 128,-1,65
 950 1468 950 1468 950 1426 c 0,66,67
 950 1341 950 1341 895 1281 c 1,68,-1
 873 1286 l 1,69,70
 873 1360 873 1360 846 1480 c 1,71,-1
 841 1517 l 1,72,73
 841 1549 841 1549 863 1563.5 c 128,-1,74
 885 1578 885 1578 927 1587 c 1,75,-1
 935 1584 l 1,63,64
1433 1158 m 1,76,77
 1437 1071 1437 1071 1445 915 c 128,-1,78
 1453 759 1453 759 1456 694 c 2,79,-1
 1468 423 l 2,80,81
 1470 370 1470 370 1471 327 c 2,82,-1
 1473 240 l 2,83,84
 1473 197 1473 197 1444.5 129.5 c 128,-1,85
 1416 62 1416 62 1395.5 43 c 128,-1,86
 1375 24 1375 24 1326 11.5 c 128,-1,87
 1277 -1 1277 -1 1190 -1 c 0,88,89
 1059 -1 1059 -1 985 61 c 1,90,91
 913 23 913 23 862.5 11 c 128,-1,92
 812 -1 812 -1 737 -1 c 0,93,94
 699 -1 699 -1 660.5 5 c 128,-1,95
 622 11 622 11 588 25.5 c 128,-1,96
 554 40 554 40 522 69.5 c 128,-1,97
 490 99 490 99 483 134 c 2,98,-1
 469 207 l 1,99,100
 456 180 456 180 440.5 154 c 128,-1,101
 425 128 425 128 411 102 c 1,102,103
 335 109 335 109 296 114.5 c 128,-1,104
 257 120 257 120 233 128 c 2,105,-1
 194 141 l 1,106,107
 128 168 128 168 76.5 205.5 c 128,-1,108
 25 243 25 243 25 268 c 0,109,110
 25 298 25 298 63 383 c 128,-1,111
 101 468 101 468 188 532 c 128,-1,112
 275 596 275 596 399 649 c 1,113,-1
 390 721 l 1,114,115
 417 745 417 745 451.5 770.5 c 128,-1,116
 486 796 486 796 531 823 c 1,117,-1
 552 185 l 1,118,119
 592 163 592 163 636.5 151 c 128,-1,120
 681 139 681 139 736 139 c 0,121,122
 789 139 789 139 836 151 c 128,-1,123
 883 163 883 163 929 185 c 1,124,-1
 861 773 l 1,125,126
 884 797 884 797 915.5 822.5 c 128,-1,127
 947 848 947 848 989 877 c 1,128,-1
 1013 185 l 1,129,130
 1055 163 1055 163 1097 151 c 128,-1,131
 1139 139 1139 139 1193 139 c 0,132,133
 1249 139 1249 139 1295.5 151 c 128,-1,134
 1342 163 1342 163 1388 185 c 1,135,136
 1371 408 1371 408 1350.5 617.5 c 128,-1,137
 1330 827 1330 827 1303 1056 c 1,138,139
 1330 1083 1330 1083 1362 1109 c 128,-1,140
 1394 1135 1394 1135 1433 1158 c 1,76,77
415 527 m 1,141,142
 317 495 317 495 240 448.5 c 128,-1,143
 163 402 163 402 121 351 c 1,144,145
 183 299 183 299 261.5 276 c 128,-1,146
 340 253 340 253 460 251 c 1,147,-1
 415 527 l 1,141,142
EndSplineSet
Substitution2: "'salt' Stylistic Alternatives in Thaana lookup 0 subtable" uniFDF2.salt
EndChar

StartChar: glyph67
Encoding: 65537 -1 67
Width: 650
GlyphClass: 2
Flags: W
LayerCount: 2
Back
Fore
SplineSet
289 907.5 m 128,-1,1
 262 935 262 935 262 976 c 0,2,3
 262 1023 262 1023 295 1055 c 128,-1,4
 328 1087 328 1087 371 1087 c 0,5,6
 413 1087 413 1087 441 1058 c 128,-1,7
 469 1029 469 1029 469 988 c 0,8,9
 469 944 469 944 436 912 c 128,-1,10
 403 880 403 880 358 880 c 0,11,0
 316 880 316 880 289 907.5 c 128,-1,1
EndSplineSet
EndChar

StartChar: glyph68
Encoding: 65538 -1 68
Width: 650
GlyphClass: 2
Flags: W
LayerCount: 2
Back
Fore
SplineSet
248 27.5 m 128,-1,1
 221 55 221 55 221 96 c 0,2,3
 221 143 221 143 254 175 c 128,-1,4
 287 207 287 207 330 207 c 0,5,6
 372 207 372 207 400 178 c 128,-1,7
 428 149 428 149 428 108 c 0,8,9
 428 64 428 64 395 32 c 128,-1,10
 362 0 362 0 317 0 c 0,11,0
 275 0 275 0 248 27.5 c 128,-1,1
EndSplineSet
EndChar

StartChar: glyph69
Encoding: 65539 -1 69
Width: 650
GlyphClass: 2
Flags: W
LayerCount: 2
Back
Fore
SplineSet
58 27.5 m 128,-1,1
 31 55 31 55 31 96 c 0,2,3
 31 143 31 143 64 175 c 128,-1,4
 97 207 97 207 140 207 c 0,5,6
 182 207 182 207 210 178 c 128,-1,7
 238 149 238 149 238 108 c 0,8,9
 238 64 238 64 205 32 c 128,-1,10
 172 0 172 0 127 0 c 0,11,0
 85 0 85 0 58 27.5 c 128,-1,1
448 27.5 m 128,-1,13
 421 55 421 55 421 96 c 0,14,15
 421 143 421 143 454 175 c 128,-1,16
 487 207 487 207 530 207 c 0,17,18
 572 207 572 207 600 178 c 128,-1,19
 628 149 628 149 628 108 c 0,20,21
 628 64 628 64 595 32 c 128,-1,22
 562 0 562 0 517 0 c 0,23,12
 475 0 475 0 448 27.5 c 128,-1,13
275 285.5 m 128,-1,25
 248 313 248 313 248 354 c 0,26,27
 248 401 248 401 281 433 c 128,-1,28
 314 465 314 465 357 465 c 0,29,30
 399 465 399 465 427 436 c 128,-1,31
 455 407 455 407 455 366 c 0,32,33
 455 322 455 322 422 290 c 128,-1,34
 389 258 389 258 344 258 c 0,35,24
 302 258 302 258 275 285.5 c 128,-1,25
EndSplineSet
EndChar

StartChar: glyph70
Encoding: 65540 -1 70
Width: 650
GlyphClass: 2
Flags: W
LayerCount: 2
Back
Fore
SplineSet
88 27.5 m 128,-1,1
 61 55 61 55 61 96 c 0,2,3
 61 143 61 143 94 175 c 128,-1,4
 127 207 127 207 170 207 c 0,5,6
 212 207 212 207 240 178 c 128,-1,7
 268 149 268 149 268 108 c 0,8,9
 268 64 268 64 235 32 c 128,-1,10
 202 0 202 0 157 0 c 0,11,0
 115 0 115 0 88 27.5 c 128,-1,1
418 27.5 m 128,-1,13
 391 55 391 55 391 96 c 0,14,15
 391 143 391 143 424 175 c 128,-1,16
 457 207 457 207 500 207 c 0,17,18
 542 207 542 207 570 178 c 128,-1,19
 598 149 598 149 598 108 c 0,20,21
 598 64 598 64 565 32 c 128,-1,22
 532 0 532 0 487 0 c 0,23,12
 445 0 445 0 418 27.5 c 128,-1,13
EndSplineSet
EndChar

StartChar: semicolon
Encoding: 59 59 71
Width: 745
GlyphClass: 2
Flags: W
LayerCount: 2
Back
Fore
SplineSet
441.5 240 m 128,-1,1
 478 201 478 201 478 136 c 0,2,3
 478 75 478 75 421.5 -22.5 c 128,-1,4
 365 -120 365 -120 295 -191.5 c 128,-1,5
 225 -263 225 -263 183 -263 c 0,6,7
 159 -263 159 -263 146 -249 c 128,-1,8
 133 -235 133 -235 133 -218 c 0,9,10
 133 -197 133 -197 149 -180.5 c 128,-1,11
 165 -164 165 -164 212.5 -116 c 128,-1,12
 260 -68 260 -68 283 -11 c 1,13,14
 232 -8 232 -8 200.5 26.5 c 128,-1,15
 169 61 169 61 169 109 c 0,16,17
 169 175 169 175 223.5 227 c 128,-1,18
 278 279 278 279 346 279 c 0,19,0
 405 279 405 279 441.5 240 c 128,-1,1
261 528.5 m 128,-1,21
 227 563 227 563 227 617 c 0,22,23
 227 686 227 686 282 743 c 128,-1,24
 337 800 337 800 409 800 c 0,25,26
 465 800 465 800 501.5 763.5 c 128,-1,27
 538 727 538 727 538 673 c 0,28,29
 538 603 538 603 481.5 548.5 c 128,-1,30
 425 494 425 494 353 494 c 0,31,20
 295 494 295 494 261 528.5 c 128,-1,21
EndSplineSet
EndChar

StartChar: colon
Encoding: 58 58 72
Width: 745
GlyphClass: 2
Flags: W
LayerCount: 2
Back
Fore
SplineSet
261 528.5 m 128,-1,1
 227 563 227 563 227 617 c 0,2,3
 227 686 227 686 282 743 c 128,-1,4
 337 800 337 800 409 800 c 0,5,6
 465 800 465 800 501.5 763.5 c 128,-1,7
 538 727 538 727 538 673 c 0,8,9
 538 603 538 603 481.5 548.5 c 128,-1,10
 425 494 425 494 353 494 c 0,11,0
 295 494 295 494 261 528.5 c 128,-1,1
196 14.5 m 128,-1,13
 162 49 162 49 162 103 c 0,14,15
 162 172 162 172 217 229 c 128,-1,16
 272 286 272 286 344 286 c 0,17,18
 400 286 400 286 436.5 249.5 c 128,-1,19
 473 213 473 213 473 159 c 0,20,21
 473 89 473 89 416.5 34.5 c 128,-1,22
 360 -20 360 -20 288 -20 c 0,23,12
 230 -20 230 -20 196 14.5 c 128,-1,13
EndSplineSet
EndChar

StartChar: exclam
Encoding: 33 33 73
Width: 823
GlyphClass: 2
Flags: W
LayerCount: 2
Back
Fore
SplineSet
686 1185 m 2,0,-1
 619 981 l 2,1,2
 576 853 576 853 545 745.5 c 128,-1,3
 514 638 514 638 498 574 c 2,4,-1
 479 495 l 2,5,6
 471 462 471 462 442.5 444.5 c 128,-1,7
 414 427 414 427 379 427 c 0,8,9
 320 427 320 427 298.5 447.5 c 128,-1,10
 277 468 277 468 277 508 c 0,11,12
 277 559 277 559 395 882.5 c 128,-1,13
 513 1206 513 1206 581.5 1343.5 c 128,-1,14
 650 1481 650 1481 711 1481 c 0,15,16
 740 1481 740 1481 751 1468.5 c 128,-1,17
 762 1456 762 1456 762 1426 c 0,18,19
 762 1386 762 1386 735 1319.5 c 128,-1,20
 708 1253 708 1253 686 1185 c 2,0,-1
227 229 m 128,-1,22
 282 286 282 286 354 286 c 0,23,24
 410 286 410 286 446.5 249.5 c 128,-1,25
 483 213 483 213 483 159 c 0,26,27
 483 89 483 89 426.5 34.5 c 128,-1,28
 370 -20 370 -20 298 -20 c 0,29,30
 240 -20 240 -20 206 14.5 c 128,-1,31
 172 49 172 49 172 103 c 0,32,21
 172 172 172 172 227 229 c 128,-1,22
EndSplineSet
EndChar

StartChar: uni0660
Encoding: 1632 1632 74
Width: 644
GlyphClass: 2
Flags: W
LayerCount: 2
Back
Fore
SplineSet
156 705 m 1,0,1
 190 760 190 760 217.5 814 c 128,-1,2
 245 868 245 868 280 919 c 1,3,4
 394 854 394 854 440.5 812.5 c 128,-1,5
 487 771 487 771 487 756 c 0,6,7
 487 728 487 728 374 562 c 1,8,9
 266 644 266 644 156 705 c 1,0,1
268 1439 m 1024,10,-1
293 276 m 1024,11,-1
EndSplineSet
EndChar

StartChar: uni0661
Encoding: 1633 1633 75
Width: 648
GlyphClass: 2
Flags: W
LayerCount: 2
Back
Fore
SplineSet
268 1439 m 1,0,1
 370 1256 370 1256 430.5 1042.5 c 128,-1,2
 491 829 491 829 491 667 c 0,3,4
 491 469 491 469 463 276 c 1,5,-1
 385 295 l 1,6,7
 380 671 380 671 321 865 c 128,-1,8
 262 1059 262 1059 212 1154.5 c 128,-1,9
 162 1250 162 1250 159 1264 c 2,10,-1
 157 1289 l 2,11,12
 157 1330 157 1330 186.5 1369 c 128,-1,13
 216 1408 216 1408 268 1439 c 1,0,1
EndSplineSet
EndChar

StartChar: uni0662
Encoding: 1634 1634 76
Width: 846
GlyphClass: 2
Flags: W
LayerCount: 2
Back
Fore
SplineSet
268 1439 m 1,0,1
 330 1327 330 1327 375 1208 c 1,2,3
 397 1191 397 1191 432.5 1180.5 c 128,-1,4
 468 1170 468 1170 508 1170 c 0,5,6
 686 1170 686 1170 712 1437 c 1,7,-1
 794 1421 l 1,8,9
 794 998 794 998 510 998 c 0,10,11
 475 998 475 998 438 1014 c 1,12,13
 491 814 491 814 491 667 c 0,14,15
 491 570 491 570 486 491.5 c 128,-1,16
 481 413 481 413 463 276 c 1,17,-1
 385 295 l 1,18,19
 382 493 382 493 368.5 620.5 c 128,-1,20
 355 748 355 748 320.5 867 c 128,-1,21
 286 986 286 986 243 1085.5 c 128,-1,22
 200 1185 200 1185 178.5 1221 c 128,-1,23
 157 1257 157 1257 157 1289 c 0,24,25
 157 1330 157 1330 186.5 1370 c 128,-1,26
 216 1410 216 1410 268 1439 c 1,0,1
EndSplineSet
EndChar

StartChar: uni0663
Encoding: 1635 1635 77
Width: 978
GlyphClass: 2
Flags: W
LayerCount: 2
Back
Fore
SplineSet
268 1439 m 1,0,1
 328 1329 328 1329 374 1207 c 1,2,3
 423 1170 423 1170 489 1170 c 0,4,5
 549 1170 549 1170 576.5 1208.5 c 128,-1,6
 604 1247 604 1247 604 1325 c 0,7,8
 604 1371 604 1371 599 1418 c 1,9,-1
 660 1439 l 1,10,11
 689 1333 689 1333 689 1259 c 2,12,-1
 689 1247 l 1,13,14
 723 1235 723 1235 747 1235 c 0,15,16
 790 1235 790 1235 813.5 1272 c 128,-1,17
 837 1309 837 1309 837 1378 c 0,18,19
 837 1416 837 1416 834 1435 c 1,20,-1
 917 1426 l 1,21,22
 926 1361 926 1361 926 1318 c 0,23,24
 926 1204 926 1204 875.5 1134 c 128,-1,25
 825 1064 825 1064 749 1064 c 0,26,27
 703 1064 703 1064 651 1093 c 1,28,29
 630 1051 630 1051 593.5 1024.5 c 128,-1,30
 557 998 557 998 508 998 c 0,31,32
 474 998 474 998 437 1014 c 1,33,-1
 435 1014 l 1,34,35
 487 818 487 818 487 667 c 0,36,37
 487 465 487 465 463 276 c 1,38,-1
 385 295 l 1,39,40
 381 655 381 655 323.5 849 c 128,-1,41
 266 1043 266 1043 213 1149.5 c 128,-1,42
 160 1256 160 1256 158 1268 c 2,43,-1
 157 1290 l 2,44,45
 157 1331 157 1331 186 1370 c 128,-1,46
 215 1409 215 1409 268 1439 c 1,0,1
EndSplineSet
EndChar

StartChar: uni0664
Encoding: 1636 1636 78
Width: 860
GlyphClass: 2
Flags: W
LayerCount: 2
Back
Fore
SplineSet
530 1496 m 1,0,1
 536 1477 536 1477 536 1454 c 0,2,3
 536 1410 536 1410 519.5 1370.5 c 128,-1,4
 503 1331 503 1331 475 1308 c 2,5,-1
 413 1259 l 1,6,7
 290 1167 290 1167 239 1120 c 1,8,9
 284 1071 284 1071 344 1045.5 c 128,-1,10
 404 1020 404 1020 487 1002 c 1,11,-1
 543 881 l 1,12,13
 480 813 480 813 405.5 702.5 c 128,-1,14
 331 592 331 592 331 544 c 0,15,16
 331 502 331 502 404 470.5 c 128,-1,17
 477 439 477 439 578 439 c 0,18,19
 683 439 683 439 761 460 c 1,20,-1
 782 424 l 1,21,22
 776 419 776 419 722 345.5 c 128,-1,23
 668 272 668 272 581 272 c 0,24,25
 413 272 413 272 325 324 c 128,-1,26
 237 376 237 376 237 479 c 0,27,28
 237 537 237 537 277 636.5 c 128,-1,29
 317 736 317 736 378 829 c 1,30,31
 271 873 271 873 205 924 c 128,-1,32
 139 975 139 975 139 1017 c 0,33,34
 139 1105 139 1105 202 1233 c 128,-1,35
 265 1361 265 1361 530 1496 c 1,0,1
198 1439 m 1024,36,-1
263 276 m 1024,37,-1
EndSplineSet
EndChar

StartChar: uni0665
Encoding: 1637 1637 79
Width: 782
GlyphClass: 2
Flags: W
LayerCount: 2
Back
Fore
SplineSet
614 1188 m 128,-1,1
 686 1045 686 1045 686 850 c 0,2,3
 686 670 686 670 643 588 c 128,-1,4
 600 506 600 506 520 452 c 128,-1,5
 440 398 440 398 355 398 c 0,6,7
 218 398 218 398 157 469.5 c 128,-1,8
 96 541 96 541 96 693 c 0,9,10
 96 825 96 825 146 975.5 c 128,-1,11
 196 1126 196 1126 275.5 1228.5 c 128,-1,12
 355 1331 355 1331 423 1331 c 0,13,0
 542 1331 542 1331 614 1188 c 128,-1,1
537.5 1026 m 128,-1,15
 474 1135 474 1135 379 1135 c 0,16,17
 313 1135 313 1135 245.5 995 c 128,-1,18
 178 855 178 855 178 738 c 0,19,20
 178 570 178 570 377 570 c 0,21,22
 479 570 479 570 540 638.5 c 128,-1,23
 601 707 601 707 601 758 c 0,24,14
 601 917 601 917 537.5 1026 c 128,-1,15
268 1439 m 1024,25,-1
463 276 m 1024,26,-1
EndSplineSet
EndChar

StartChar: uni0666
Encoding: 1638 1638 80
Width: 912
GlyphClass: 2
Flags: W
LayerCount: 2
Back
Fore
SplineSet
661 273 m 1,0,1
 585 462 585 462 549 624 c 128,-1,2
 513 786 513 786 513 958 c 0,3,4
 513 1023 513 1023 526 1120 c 128,-1,5
 539 1217 539 1217 547 1247 c 1,6,7
 463 1235 463 1235 337 1235 c 0,8,9
 254 1235 254 1235 177.5 1250 c 128,-1,10
 101 1265 101 1265 52 1288 c 1,11,-1
 99 1461 l 1,12,13
 225 1411 225 1411 337 1411 c 0,14,15
 474 1411 474 1411 636 1431 c 1,16,-1
 661 1398 l 1,17,18
 626 1258 626 1258 626 1155 c 0,19,20
 626 915 626 915 665.5 735.5 c 128,-1,21
 705 556 705 556 782 404 c 1,22,-1
 661 273 l 1,0,1
408 1439 m 1024,23,-1
463 276 m 1024,24,-1
EndSplineSet
EndChar

StartChar: uni0667
Encoding: 1639 1639 81
Width: 893
GlyphClass: 2
Flags: W
LayerCount: 2
Back
Fore
SplineSet
418 276 m 1,0,1
 272 768 272 768 151 1001.5 c 128,-1,2
 30 1235 30 1235 24.5 1247 c 128,-1,3
 19 1259 19 1259 19 1279 c 0,4,5
 19 1318 19 1318 45.5 1359.5 c 128,-1,6
 72 1401 72 1401 118 1435 c 1,7,8
 212 1291 212 1291 323.5 999 c 128,-1,9
 435 707 435 707 477 497 c 1,10,11
 520 743 520 743 612 1012 c 128,-1,12
 704 1281 704 1281 789 1435 c 1,13,-1
 875 1288 l 1,14,15
 748 1033 748 1033 669.5 818.5 c 128,-1,16
 591 604 591 604 528 358 c 1,17,18
 463 306 463 306 418 276 c 1,0,1
308 1439 m 1024,19,-1
EndSplineSet
EndChar

StartChar: uni0668
Encoding: 1640 1640 82
Width: 893
GlyphClass: 2
Flags: W
LayerCount: 2
Back
Fore
SplineSet
475 1435 m 1,0,1
 624 931 624 931 747.5 697.5 c 128,-1,2
 871 464 871 464 873 454 c 128,-1,3
 875 444 875 444 875 431 c 0,4,5
 875 393 875 393 848.5 352.5 c 128,-1,6
 822 312 822 312 774 276 c 1,7,8
 680 419 680 419 568.5 710.5 c 128,-1,9
 457 1002 457 1002 415 1213 c 1,10,11
 370 959 370 959 281.5 699.5 c 128,-1,12
 193 440 193 440 105 276 c 1,13,-1
 17 422 l 1,14,15
 149 685 149 685 223.5 889 c 128,-1,16
 298 1093 298 1093 365 1353 c 1,17,-1
 475 1435 l 1,0,1
268 1439 m 1024,18,-1
EndSplineSet
EndChar

StartChar: uni0669
Encoding: 1641 1641 83
Width: 887
GlyphClass: 2
Flags: W
LayerCount: 2
Back
Fore
SplineSet
637 273 m 1,0,1
 562 468 562 468 529 613.5 c 128,-1,2
 496 759 496 759 493 914 c 1,3,4
 440 890 440 890 382 890 c 0,5,6
 236 890 236 890 161.5 956.5 c 128,-1,7
 87 1023 87 1023 87 1148 c 0,8,9
 87 1256 87 1256 176 1365.5 c 128,-1,10
 265 1475 265 1475 355 1475 c 0,11,12
 472 1475 472 1475 533.5 1371.5 c 128,-1,13
 595 1268 595 1268 595 1044 c 0,14,15
 595 880 595 880 635 724 c 128,-1,16
 675 568 675 568 757 403 c 1,17,-1
 637 273 l 1,0,1
257 1101 m 128,-1,19
 338 1062 338 1062 440 1062 c 1,20,-1
 486 1067 l 1,21,-1
 484 1080 l 2,22,23
 452 1296 452 1296 304 1296 c 0,24,25
 253 1296 253 1296 214.5 1262.5 c 128,-1,26
 176 1229 176 1229 176 1198 c 0,27,18
 176 1140 176 1140 257 1101 c 128,-1,19
138 1439 m 1024,28,-1
463 276 m 1024,29,-1
EndSplineSet
EndChar

StartChar: uniFDF2.salt
Encoding: 65541 -1 84
Width: 1907
GlyphClass: 2
Flags: W
LayerCount: 2
Back
Fore
SplineSet
1528 128 m 128,-1,1
 1510 143 1510 143 1510 166 c 256,2,3
 1510 189 1510 189 1536 285 c 128,-1,4
 1562 381 1562 381 1590.5 630.5 c 128,-1,5
 1619 880 1619 880 1619 1140 c 0,6,7
 1619 1191 1619 1191 1639.5 1224.5 c 128,-1,8
 1660 1258 1660 1258 1697 1258 c 0,9,10
 1757 1258 1757 1258 1757 1194 c 0,11,12
 1757 878 1757 878 1712 533 c 128,-1,13
 1667 188 1667 188 1639.5 150.5 c 128,-1,14
 1612 113 1612 113 1574 113 c 0,15,0
 1546 113 1546 113 1528 128 c 128,-1,1
448 142 m 1,16,17
 383 64 383 64 281 7 c 128,-1,18
 179 -50 179 -50 108 -50 c 0,19,20
 82 -50 82 -50 66 -33.5 c 128,-1,21
 50 -17 50 -17 50 6 c 0,22,23
 50 66 50 66 124 87.5 c 128,-1,24
 198 109 198 109 269 158 c 128,-1,25
 340 207 340 207 380 276.5 c 128,-1,26
 420 346 420 346 429 418.5 c 128,-1,27
 438 491 438 491 496 491 c 0,28,29
 564 491 564 491 564 445 c 0,30,31
 564 332 564 332 591 268.5 c 128,-1,32
 618 205 618 205 673 205 c 0,33,34
 732 205 732 205 776 300 c 128,-1,35
 820 395 820 395 820 509 c 0,36,37
 820 605 820 605 886 605 c 0,38,39
 950 605 950 605 951.5 561.5 c 128,-1,40
 953 518 953 518 978.5 379.5 c 128,-1,41
 1004 241 1004 241 1086 241 c 0,42,43
 1166 241 1166 241 1199 318.5 c 128,-1,44
 1232 396 1232 396 1243 569.5 c 128,-1,45
 1254 743 1254 743 1254 864 c 0,46,47
 1254 932 1254 932 1316 932 c 0,48,49
 1343 932 1343 932 1363.5 917 c 128,-1,50
 1384 902 1384 902 1384 884 c 0,51,52
 1384 703 1384 703 1368.5 488 c 128,-1,53
 1353 273 1353 273 1268 150 c 128,-1,54
 1183 27 1183 27 1062 27 c 0,55,56
 986 27 986 27 932.5 74 c 128,-1,57
 879 121 879 121 851 229 c 1,58,59
 764 -9 764 -9 627 -9 c 0,60,61
 560 -9 560 -9 516 25.5 c 128,-1,62
 472 60 472 60 448 142 c 1,16,17
931 1222.5 m 128,-1,64
 922 1184 922 1184 881 1184 c 0,65,66
 833 1184 833 1184 833 1230 c 0,67,68
 833 1237 833 1237 834 1257 c 2,69,-1
 840 1345 l 2,70,71
 840 1367 840 1367 841 1381 c 0,72,73
 841 1444 841 1444 850 1480.5 c 128,-1,74
 859 1517 859 1517 893 1517 c 0,75,76
 940 1517 940 1517 940 1487 c 0,77,63
 940 1261 940 1261 931 1222.5 c 128,-1,64
861 850 m 1,78,79
 844 812 844 812 813.5 793.5 c 128,-1,80
 783 775 783 775 739 775 c 0,81,82
 691 775 691 775 655 816 c 128,-1,83
 619 857 619 857 619 912 c 0,84,85
 619 981 619 981 648.5 1025 c 128,-1,86
 678 1069 678 1069 711 1069 c 0,87,88
 739 1069 739 1069 739 1043 c 0,89,90
 739 1034 739 1034 733 1023 c 2,91,-1
 720 997 l 2,92,93
 712 983 712 983 706 964.5 c 128,-1,94
 700 946 700 946 700 923 c 0,95,96
 700 874 700 874 755 874 c 0,97,98
 792 874 792 874 807.5 897 c 128,-1,99
 823 920 823 920 823 959 c 0,100,101
 823 996 823 996 830 1019.5 c 128,-1,102
 837 1043 837 1043 861 1043 c 0,103,104
 900 1043 900 1043 900 1017 c 0,105,106
 900 889 900 889 969 889 c 0,107,108
 1026 889 1026 889 1026 951 c 0,109,110
 1026 961 1026 961 1023 978 c 2,111,-1
 1016 1012 l 2,112,113
 1012 1029 1012 1029 1008.5 1044 c 128,-1,114
 1005 1059 1005 1059 1005 1067 c 0,115,116
 1005 1099 1005 1099 1035 1099 c 0,117,118
 1066 1099 1066 1099 1078 1037 c 128,-1,119
 1090 975 1090 975 1090 947 c 0,120,121
 1090 788 1090 788 962 788 c 0,122,123
 891 788 891 788 861 850 c 1,78,79
EndSplineSet
EndChar

StartChar: uniFDFD
Encoding: 65021 65021 85
Width: 3978
GlyphClass: 2
Flags: W
LayerCount: 2
Back
Fore
SplineSet
2292.5 346 m 128,-1,1
 2243 353 2243 353 2227 366 c 1,2,3
 2218 306 2218 306 2194 257.5 c 128,-1,4
 2170 209 2170 209 2139 176 c 1,5,-1
 2146 171 l 2,6,7
 2209 127 2209 127 2243 110 c 128,-1,8
 2277 93 2277 93 2328 84.5 c 128,-1,9
 2379 76 2379 76 2443 76 c 1,10,-1
 2399 -10 l 1,11,12
 2382 -7 2382 -7 2371 -6 c 2,13,-1
 2353 -4 l 2,14,15
 2346 -4 2346 -4 2340 -3 c 0,16,17
 2334 -3 2334 -3 2328 -2 c 0,18,19
 2232 -2 2232 -2 2158.5 -43.5 c 128,-1,20
 2085 -85 2085 -85 2013 -112.5 c 128,-1,21
 1941 -140 1941 -140 1758 -140 c 0,22,23
 1703 -140 1703 -140 1659 -123.5 c 128,-1,24
 1615 -107 1615 -107 1576 -72 c 1,25,26
 1552 -112 1552 -112 1484.5 -141 c 128,-1,27
 1417 -170 1417 -170 1348 -170 c 0,28,29
 1317 -170 1317 -170 1291 -156.5 c 128,-1,30
 1265 -143 1265 -143 1243 -120 c 1,31,-1
 1229 -170 l 1,32,33
 1113 -170 1113 -170 1022.5 -133.5 c 128,-1,34
 932 -97 932 -97 932 -35 c 0,35,36
 932 -18 932 -18 936.5 2 c 128,-1,37
 941 22 941 22 952 44 c 1,38,39
 925 26 925 26 901.5 8 c 128,-1,40
 878 -10 878 -10 856 -25 c 1,41,42
 863 -88 863 -88 872 -142 c 2,43,-1
 904 -358 l 2,44,45
 912 -417 912 -417 919 -490 c 1,46,47
 899 -513 899 -513 881.5 -526.5 c 128,-1,48
 864 -540 864 -540 842 -555 c 1,49,50
 838 -429 838 -429 823 -286 c 128,-1,51
 808 -143 808 -143 808 -63 c 0,52,53
 808 -41 808 -41 827 7.5 c 128,-1,54
 846 56 846 56 870 74 c 128,-1,55
 894 92 894 92 963 138.5 c 128,-1,56
 1032 185 1032 185 1078 203.5 c 128,-1,57
 1124 222 1124 222 1147 222 c 0,58,59
 1180 222 1180 222 1212 142.5 c 128,-1,60
 1244 63 1244 63 1274.5 -9.5 c 128,-1,61
 1305 -82 1305 -82 1348 -82 c 0,62,63
 1394 -82 1394 -82 1451.5 -60 c 128,-1,64
 1509 -38 1509 -38 1530 -21.5 c 128,-1,65
 1551 -5 1551 -5 1577.5 56 c 128,-1,66
 1604 117 1604 117 1636 123 c 0,67,68
 1646 123 1646 123 1654.5 120.5 c 128,-1,69
 1663 118 1663 118 1669 115 c 1,70,71
 1657 83 1657 83 1643 52 c 2,72,-1
 1615 -10 l 1,73,74
 1643 -28 1643 -28 1678 -40 c 128,-1,75
 1713 -52 1713 -52 1757 -52 c 0,76,77
 1937 -52 1937 -52 2049 -12.5 c 128,-1,78
 2161 27 2161 27 2196 34 c 1,79,80
 2157 52 2157 52 2129 74 c 2,81,-1
 2075 114 l 2,82,83
 2050 132 2050 132 2025.5 144 c 128,-1,84
 2001 156 2001 156 1971 156 c 0,85,86
 1930 156 1930 156 1901.5 143 c 128,-1,87
 1873 130 1873 130 1845 111 c 1,88,89
 1829 125 1829 125 1829 156 c 0,90,91
 1829 198 1829 198 1866 224.5 c 128,-1,92
 1903 251 1903 251 1967 251 c 0,93,94
 1989 251 1989 251 2010.5 245.5 c 128,-1,95
 2032 240 2032 240 2063 224 c 1,96,97
 2110 251 2110 251 2140.5 294.5 c 128,-1,98
 2171 338 2171 338 2189 395 c 1,99,100
 2181 414 2181 414 2175 427 c 2,101,-1
 2135 500 l 1,102,103
 2120 519 2120 519 2098 567 c 128,-1,104
 2076 615 2076 615 2076 651 c 0,105,106
 2076 681 2076 681 2094 697.5 c 128,-1,107
 2112 714 2112 714 2144 731 c 1,108,109
 2151 697 2151 697 2188.5 602 c 128,-1,110
 2226 507 2226 507 2231 449 c 1,111,112
 2258 434 2258 434 2291 430.5 c 128,-1,113
 2324 427 2324 427 2372 427 c 0,114,115
 2426 427 2426 427 2468 433.5 c 128,-1,116
 2510 440 2510 440 2539 457 c 1,117,118
 2530 580 2530 580 2519 687 c 128,-1,119
 2508 794 2508 794 2506 819 c 2,120,-1
 2504 849 l 1,121,-1
 1021 849 l 2,122,123
 995 849 995 849 969 863.5 c 128,-1,124
 943 878 943 878 926 899 c 1,125,-1
 911 849 l 1,126,127
 796 849 796 849 705 885 c 128,-1,128
 614 921 614 921 614 984 c 0,129,130
 614 1001 614 1001 619 1021 c 128,-1,131
 624 1041 624 1041 635 1063 c 1,132,133
 610 1046 610 1046 586 1028 c 2,134,-1
 539 994 l 1,135,136
 545 900 545 900 566 772 c 128,-1,137
 587 644 587 644 602 534 c 1,138,-1
 606 511 l 1,139,-1
 618 448 l 1,140,141
 639 436 639 436 658.5 431.5 c 128,-1,142
 678 427 678 427 700 427 c 0,143,144
 719 427 719 427 737 430.5 c 128,-1,145
 755 434 755 434 769 438 c 1,146,147
 764 446 764 446 762 454.5 c 128,-1,148
 760 463 760 463 760 474 c 0,149,150
 760 552 760 552 833 641.5 c 128,-1,151
 906 731 906 731 976 731 c 0,152,153
 1010 731 1010 731 1039 652 c 128,-1,154
 1068 573 1068 573 1102 500 c 128,-1,155
 1136 427 1136 427 1177 427 c 2,156,-1
 1284 427 l 2,157,158
 1469 427 1469 427 1571.5 463.5 c 128,-1,159
 1674 500 1674 500 1731 511 c 1,160,161
 1698 531 1698 531 1691 532.5 c 128,-1,162
 1684 534 1684 534 1644.5 567 c 128,-1,163
 1605 600 1605 600 1572 617 c 128,-1,164
 1539 634 1539 634 1507 634 c 0,165,166
 1460 634 1460 634 1436.5 621 c 128,-1,167
 1413 608 1413 608 1381 588 c 1,168,169
 1373 596 1373 596 1368 608 c 128,-1,170
 1363 620 1363 620 1363 634 c 0,171,172
 1363 677 1363 677 1403 703.5 c 128,-1,173
 1443 730 1443 730 1503 730 c 0,174,175
 1568 730 1568 730 1651.5 669.5 c 128,-1,176
 1735 609 1735 609 1794 581.5 c 128,-1,177
 1853 554 1853 554 1978 554 c 1,178,-1
 1934 469 l 1,179,180
 1903 473 1903 473 1889 474.5 c 128,-1,181
 1875 476 1875 476 1863 476 c 0,182,183
 1816 476 1816 476 1789 470 c 128,-1,184
 1762 464 1762 464 1720 445 c 2,185,-1
 1653 414 l 1,186,187
 1579 373 1579 373 1511.5 356 c 128,-1,188
 1444 339 1444 339 1295 339 c 2,189,-1
 1170 339 l 2,190,191
 1142 339 1142 339 1117.5 352.5 c 128,-1,192
 1093 366 1093 366 1072 389 c 1,193,-1
 1057 339 l 1,194,195
 1007 339 1007 339 954 347 c 128,-1,196
 901 355 901 355 856 372 c 1,197,198
 820 360 820 360 785 349.5 c 128,-1,199
 750 339 750 339 709 339 c 0,200,201
 688 339 688 339 670.5 342 c 128,-1,202
 653 345 653 345 635 355 c 1,203,204
 638 328 638 328 638 297 c 0,205,206
 638 186 638 186 534.5 100.5 c 128,-1,207
 431 15 431 15 309 15 c 0,208,209
 209 15 209 15 154.5 73 c 128,-1,210
 100 131 100 131 100 231 c 0,211,212
 100 269 100 269 105 299 c 128,-1,213
 110 329 110 329 122 380 c 1,214,-1
 165 370 l 1,215,216
 159 348 159 348 155.5 327 c 128,-1,217
 152 306 152 306 152 288 c 0,218,219
 152 204 152 204 193.5 157 c 128,-1,220
 235 110 235 110 311 110 c 0,221,222
 395 110 395 110 480.5 151.5 c 128,-1,223
 566 193 566 193 596 254 c 1,224,225
 579 288 579 288 565.5 331.5 c 128,-1,226
 552 375 552 375 544 417 c 2,227,-1
 535 461 l 2,228,229
 530 478 530 478 510 643 c 128,-1,230
 490 808 490 808 490 956 c 0,231,232
 490 982 490 982 507.5 1025.5 c 128,-1,233
 525 1069 525 1069 549 1088 c 2,234,-1
 573 1107 l 2,235,236
 640 1159 640 1159 714 1200 c 128,-1,237
 788 1241 788 1241 829 1241 c 256,238,239
 870 1241 870 1241 921.5 1089 c 128,-1,240
 973 937 973 937 1030 937 c 2,241,-1
 2496 937 l 1,242,-1
 2470 1239 l 2,243,244
 2466 1283 2466 1283 2463 1308 c 1,245,246
 2484 1331 2484 1331 2502.5 1346 c 128,-1,247
 2521 1361 2521 1361 2540 1374 c 1,248,249
 2540 1359 2540 1359 2542 1325 c 2,250,-1
 2567 937 l 1,251,-1
 2698 937 l 1,252,-1
 2697 975 l 1,253,-1
 2689 1209 l 1,254,-1
 2684 1307 l 2,255,256
 2684 1312 2684 1312 2683 1318 c 0,257,258
 2683 1360 2683 1360 2703.5 1383.5 c 128,-1,259
 2724 1407 2724 1407 2760 1410 c 1,260,-1
 2771 1370 l 2,261,262
 2775 1353 2775 1353 2790 1308 c 2,263,-1
 2800 1273 l 1,264,-1
 2769 1247 l 1,265,-1
 2777 986 l 2,266,267
 2777 959 2777 959 2778 937 c 1,268,-1
 2855 937 l 2,269,270
 2898 937 2898 937 2930 952.5 c 128,-1,271
 2962 968 2962 968 2989 1013 c 2,272,-1
 2997 1028 l 2,273,274
 3005 1043 3005 1043 3017 1053.5 c 128,-1,275
 3029 1064 3029 1064 3045 1064 c 0,276,277
 3050 1064 3050 1064 3059 1062 c 128,-1,278
 3068 1060 3068 1060 3073 1056 c 1,279,-1
 3049 999 l 2,280,281
 3039 975 3039 975 3026 950 c 1,282,283
 3046 942 3046 942 3074 939.5 c 128,-1,284
 3102 937 3102 937 3128 937 c 0,285,286
 3157 937 3157 937 3177 939 c 128,-1,287
 3197 941 3197 941 3218 948 c 1,288,289
 3225 959 3225 959 3231.5 981 c 128,-1,290
 3238 1003 3238 1003 3246 1028 c 2,291,-1
 3257 1065 l 1,292,-1
 3256 1065 l 1,293,294
 3266 1098 3266 1098 3281 1118.5 c 128,-1,295
 3296 1139 3296 1139 3319 1139 c 0,296,297
 3336 1139 3336 1139 3346 1131 c 1,298,299
 3330 1093 3330 1093 3315 1044.5 c 128,-1,300
 3300 996 3300 996 3286 954 c 1,301,302
 3303 945 3303 945 3316 942.5 c 128,-1,303
 3329 940 3329 940 3348 940 c 0,304,305
 3361 940 3361 940 3376 942 c 128,-1,306
 3391 944 3391 944 3411 951 c 1,307,308
 3427 976 3427 976 3454.5 1062.5 c 128,-1,309
 3482 1149 3482 1149 3515 1149 c 0,310,311
 3523 1149 3523 1149 3532.5 1147.5 c 128,-1,312
 3542 1146 3542 1146 3549 1141 c 1,313,314
 3535 1107 3535 1107 3519.5 1063 c 128,-1,315
 3504 1019 3504 1019 3490 977 c 1,316,317
 3520 958 3520 958 3550.5 947.5 c 128,-1,318
 3581 937 3581 937 3625 937 c 2,319,-1
 3649 938 l 2,320,321
 3692 940 3692 940 3737.5 950 c 128,-1,322
 3783 960 3783 960 3822 978 c 1,323,324
 3806 1044 3806 1044 3782.5 1103.5 c 128,-1,325
 3759 1163 3759 1163 3759 1182 c 0,326,327
 3759 1211 3759 1211 3780.5 1236 c 128,-1,328
 3802 1261 3802 1261 3835 1279 c 1,329,330
 3841 1231 3841 1231 3853.5 1181.5 c 128,-1,331
 3866 1132 3866 1132 3873 1086 c 2,332,-1
 3877 1058 l 2,333,334
 3877 1044 3877 1044 3878 1030 c 0,335,336
 3878 1001 3878 1001 3863.5 970.5 c 128,-1,337
 3849 940 3849 940 3838 911 c 1,338,339
 3775 874 3775 874 3722.5 862 c 128,-1,340
 3670 850 3670 850 3632 849 c 0,341,342
 3583 849 3583 849 3537 866 c 128,-1,343
 3491 883 3491 883 3465 911 c 1,344,-1
 3449 880 l 2,345,346
 3440 867 3440 867 3408.5 858 c 128,-1,347
 3377 849 3377 849 3346 849 c 0,348,349
 3316 849 3316 849 3295 856 c 128,-1,350
 3274 863 3274 863 3253 878 c 1,351,352
 3242 864 3242 864 3204.5 856.5 c 128,-1,353
 3167 849 3167 849 3116 849 c 0,354,355
 3084 849 3084 849 3043 857.5 c 128,-1,356
 3002 866 3002 866 2974 883 c 1,357,358
 2961 872 2961 872 2935.5 860.5 c 128,-1,359
 2910 849 2910 849 2864 849 c 2,360,-1
 2780 849 l 1,361,-1
 2780 839 l 2,362,363
 2780 812 2780 812 2781 783 c 0,364,365
 2781 754 2781 754 2782 726 c 2,366,-1
 2782 675 l 2,367,368
 2782 640 2782 640 2783 611 c 2,369,-1
 2783 546 l 2,370,371
 2783 502 2783 502 2780.5 451.5 c 128,-1,372
 2778 401 2778 401 2776 348 c 1,373,-1
 2725 339 l 1,374,375
 2725 390 2725 390 2722.5 441.5 c 128,-1,376
 2720 493 2720 493 2717 552 c 2,377,-1
 2708 713 l 2,378,379
 2705 772 2705 772 2702 849 c 1,380,-1
 2572 849 l 1,381,-1
 2576 786 l 2,382,383
 2579 711 2579 711 2584 640 c 128,-1,384
 2589 569 2589 569 2589 494 c 0,385,386
 2589 469 2589 469 2569.5 422 c 128,-1,387
 2550 375 2550 375 2538 367 c 128,-1,388
 2526 359 2526 359 2480 349 c 128,-1,389
 2434 339 2434 339 2379 339 c 0,390,0
 2342 339 2342 339 2292.5 346 c 128,-1,1
1342 1089 m 1,391,-1
 1297 1093 l 2,392,393
 1237 1097 1237 1097 1168.5 1133 c 128,-1,394
 1100 1169 1100 1169 1100 1196 c 0,395,396
 1100 1204 1100 1204 1104.5 1219 c 128,-1,397
 1109 1234 1109 1234 1116 1250 c 2,398,-1
 1130 1281 l 2,399,400
 1153 1332 1153 1332 1214 1375.5 c 128,-1,401
 1275 1419 1275 1419 1338 1445 c 1,402,-1
 1333 1493 l 1,403,404
 1355 1515 1355 1515 1376 1528 c 128,-1,405
 1397 1541 1397 1541 1420 1558 c 1,406,-1
 1430 1212 l 1,407,-1
 1432 1176 l 1,408,-1
 1432 1140 l 1,409,410
 1455 1125 1455 1125 1484 1117.5 c 128,-1,411
 1513 1110 1513 1110 1552 1110 c 0,412,413
 1577 1110 1577 1110 1609.5 1116 c 128,-1,414
 1642 1122 1642 1122 1678 1140 c 1,415,-1
 1663 1265 l 2,416,417
 1654 1344 1654 1344 1645.5 1431.5 c 128,-1,418
 1637 1519 1637 1519 1633 1590 c 1,419,420
 1653 1613 1653 1613 1671.5 1628 c 128,-1,421
 1690 1643 1690 1643 1711 1655 c 1,422,-1
 1716 1501 l 2,423,424
 1718 1434 1718 1434 1719 1376 c 2,425,-1
 1721 1261 l 2,426,427
 1721 1205 1721 1205 1724 1140 c 1,428,429
 1770 1110 1770 1110 1843 1110 c 0,430,431
 1881 1110 1881 1110 1913 1117.5 c 128,-1,432
 1945 1125 1945 1125 1971 1141 c 1,433,434
 1959 1293 1959 1293 1945 1441.5 c 128,-1,435
 1931 1590 1931 1590 1915 1731 c 1,436,437
 1935 1753 1935 1753 1952 1766.5 c 128,-1,438
 1969 1780 1969 1780 1992 1796 c 1,439,440
 1995 1706 1995 1706 2000 1626 c 2,441,-1
 2009 1471 l 2,442,443
 2013 1389 2013 1389 2016.5 1318.5 c 128,-1,444
 2020 1248 2020 1248 2022 1178 c 0,445,446
 2022 1151 2022 1151 2003 1107.5 c 128,-1,447
 1984 1064 1984 1064 1974 1052.5 c 128,-1,448
 1964 1041 1964 1041 1933 1031.5 c 128,-1,449
 1902 1022 1902 1022 1844 1022 c 0,450,451
 1809 1022 1809 1022 1772 1031 c 128,-1,452
 1735 1040 1735 1040 1713 1063 c 1,453,454
 1661 1036 1661 1036 1632 1029 c 128,-1,455
 1603 1022 1603 1022 1552 1022 c 0,456,457
 1480 1022 1480 1022 1438 1049 c 128,-1,458
 1396 1076 1396 1076 1389 1122 c 2,459,-1
 1383 1164 l 1,460,-1
 1342 1089 l 1,391,-1
2823 -116 m 1,462,463
 2821 -122 2821 -122 2813 -122 c 0,464,465
 2758 -122 2758 -122 2719 -93 c 1,466,467
 2701 -209 2701 -209 2632.5 -283 c 128,-1,468
 2564 -357 2564 -357 2465 -357 c 0,469,470
 2438 -357 2438 -357 2392 -338 c 128,-1,471
 2346 -319 2346 -319 2315 -292 c 1,472,-1
 2330 -255 l 1,473,474
 2350 -259 2350 -259 2365 -261 c 2,475,-1
 2391 -264 l 2,476,477
 2403 -266 2403 -266 2414 -266 c 128,-1,478
 2425 -266 2425 -266 2439 -267 c 0,479,480
 2525 -267 2525 -267 2586 -216.5 c 128,-1,481
 2647 -166 2647 -166 2680 -65 c 1,482,483
 2673 -47 2673 -47 2666.5 -33 c 128,-1,484
 2660 -19 2660 -19 2654 -7 c 2,485,-1
 2641 17 l 1,486,-1
 2626 41 l 1,487,-1
 2612 67 l 2,488,489
 2592 100 2592 100 2580 132 c 128,-1,490
 2568 164 2568 164 2568 190 c 0,491,492
 2568 220 2568 220 2586 237.5 c 128,-1,493
 2604 255 2604 255 2636 271 c 1,494,495
 2643 241 2643 241 2657 206 c 2,496,-1
 2684 134 l 2,497,498
 2698 96 2698 96 2709 59 c 128,-1,499
 2720 22 2720 22 2723 -12 c 1,500,501
 2756 -31 2756 -31 2788.5 -32 c 128,-1,502
 2821 -33 2821 -33 2823 -41 c 1,503,504
 2823 -34 2823 -34 2832 -34 c 0,505,506
 2869 -34 2869 -34 2901 -26 c 128,-1,507
 2933 -18 2933 -18 2959 -4 c 1,508,509
 2947 147 2947 147 2932.5 295.5 c 128,-1,510
 2918 444 2918 444 2901 587 c 1,511,512
 2922 610 2922 610 2940 624.5 c 128,-1,513
 2958 639 2958 639 2979 653 c 1,514,515
 2982 562 2982 562 2987 482 c 2,516,-1
 2997 326 l 1,517,-1
 3005 179 l 2,518,519
 3008 108 3008 108 3009 34 c 0,520,521
 3009 -1 3009 -1 2982.5 -61.5 c 128,-1,522
 2956 -122 2956 -122 2832 -122 c 0,523,461
 2824 -122 2824 -122 2823 -116 c 1,462,463
2246 1632 m 1,524,525
 2246 1604 2246 1604 2247 1570 c 2,526,-1
 2251 1445 l 2,527,528
 2251 1418 2251 1418 2252 1406 c 2,529,-1
 2252 1252 l 2,530,531
 2252 1197 2252 1197 2249.5 1142 c 128,-1,532
 2247 1087 2247 1087 2245 1032 c 1,533,-1
 2192 1022 l 1,534,-1
 2184 1267 l 1,535,-1
 2179 1365 l 1,536,-1
 2175 1467 l 2,537,538
 2173 1525 2173 1525 2169 1586.5 c 128,-1,539
 2165 1648 2165 1648 2160 1693 c 2,540,-1
 2159 1706 l 2,541,542
 2159 1748 2159 1748 2181.5 1771 c 128,-1,543
 2204 1794 2204 1794 2235 1796 c 1,544,545
 2241 1772 2241 1772 2247 1754 c 2,546,-1
 2277 1659 l 1,547,-1
 2246 1632 l 1,524,525
3230 187 m 2,548,549
 3230 149 3230 149 3229 104 c 2,550,-1
 3227 6 l 1,551,-1
 3222 -113 l 1,552,-1
 3169 -122 l 1,553,554
 3169 -57 3169 -57 3168 -5 c 2,555,-1
 3165 90 l 1,556,-1
 3157 253 l 2,557,558
 3157 282 3157 282 3153 322 c 2,559,-1
 3146 405 l 2,560,561
 3142 448 3142 448 3139.5 489 c 128,-1,562
 3137 530 3137 530 3137 561 c 0,563,564
 3137 607 3137 607 3159 627 c 128,-1,565
 3181 647 3181 647 3213 653 c 1,566,567
 3223 602 3223 602 3235 570.5 c 128,-1,568
 3247 539 3247 539 3254 515 c 1,569,-1
 3223 488 l 1,570,571
 3225 460 3225 460 3225 426.5 c 128,-1,572
 3225 393 3225 393 3228 361 c 0,573,574
 3228 330 3228 330 3229 302.5 c 128,-1,575
 3230 275 3230 275 3230 261 c 2,576,-1
 3230 187 l 2,548,549
903 929 m 1,577,578
 878 965 878 965 858.5 1023 c 128,-1,579
 839 1081 839 1081 831 1152 c 1,580,581
 790 1133 790 1133 740.5 1089 c 128,-1,582
 691 1045 691 1045 675 1007 c 1,583,584
 712 975 712 975 769.5 955.5 c 128,-1,585
 827 936 827 936 903 929 c 1,577,578
1049 419 m 1,586,587
 1024 455 1024 455 1006 510.5 c 128,-1,588
 988 566 988 566 978 642 c 1,589,590
 934 622 934 622 885.5 576.5 c 128,-1,591
 837 531 837 531 821 496 c 1,592,593
 863 462 863 462 923.5 443 c 128,-1,594
 984 424 984 424 1049 419 c 1,586,587
1220 -89 m 1,595,596
 1191 -45 1191 -45 1171 20 c 128,-1,597
 1151 85 1151 85 1149 133 c 1,598,599
 1112 117 1112 117 1061 72 c 128,-1,600
 1010 27 1010 27 993 -12 c 1,601,602
 1034 -47 1034 -47 1095 -66 c 128,-1,603
 1156 -85 1156 -85 1220 -89 c 1,595,596
1380 1183 m 1,604,605
 1365 1265 1365 1265 1350 1369 c 1,606,607
 1295 1351 1295 1351 1242.5 1321.5 c 128,-1,608
 1190 1292 1190 1292 1155 1249 c 1,609,610
 1199 1216 1199 1216 1239.5 1202 c 128,-1,611
 1280 1188 1280 1188 1380 1183 c 1,604,605
1754 1893 m 1,612,613
 1768 1870 1768 1870 1773 1843 c 128,-1,614
 1778 1816 1778 1816 1778 1806 c 0,615,616
 1778 1775 1778 1775 1757 1749.5 c 128,-1,617
 1736 1724 1736 1724 1708 1724 c 0,618,619
 1696 1724 1696 1724 1683 1729.5 c 128,-1,620
 1670 1735 1670 1735 1662 1746 c 1,621,622
 1651 1722 1651 1722 1634.5 1709 c 128,-1,623
 1618 1696 1618 1696 1598 1696 c 0,624,625
 1571 1696 1571 1696 1554.5 1713 c 128,-1,626
 1538 1730 1538 1730 1538 1760 c 0,627,628
 1538 1771 1538 1771 1542.5 1788 c 128,-1,629
 1547 1805 1547 1805 1555 1819 c 1,630,-1
 1573 1815 l 1,631,-1
 1570 1797 l 2,632,633
 1570 1790 1570 1790 1569 1781 c 0,634,635
 1569 1760 1569 1760 1578 1752.5 c 128,-1,636
 1587 1745 1587 1745 1601 1745 c 256,637,638
 1615 1745 1615 1745 1625 1756.5 c 128,-1,639
 1635 1768 1635 1768 1635 1784 c 0,640,641
 1635 1795 1635 1795 1634 1806.5 c 128,-1,642
 1633 1818 1633 1818 1633 1829 c 1,643,-1
 1663 1849 l 1,644,645
 1668 1804 1668 1804 1681 1789 c 128,-1,646
 1694 1774 1694 1774 1717 1774 c 0,647,648
 1725 1774 1725 1774 1732 1778.5 c 128,-1,649
 1739 1783 1739 1783 1743 1789 c 1,650,651
 1738 1805 1738 1805 1728.5 1825.5 c 128,-1,652
 1719 1846 1719 1846 1719 1856 c 0,653,654
 1719 1871 1719 1871 1732.5 1881 c 128,-1,655
 1746 1891 1746 1891 1754 1893 c 1,612,613
250 584 m 1,656,657
 272 604 272 604 294 628 c 2,658,-1
 331 668 l 1,659,660
 352 645 352 645 369.5 628 c 128,-1,661
 387 611 387 611 407 593 c 1,662,663
 394 574 394 574 377.5 553 c 128,-1,664
 361 532 361 532 333 509 c 1,665,666
 322 517 322 517 311.5 526.5 c 128,-1,667
 301 536 301 536 290 545 c 2,668,-1
 269 564 l 1,669,-1
 250 584 l 1,656,657
3830 692 m 1,670,671
 3814 672 3814 672 3797.5 652.5 c 128,-1,672
 3781 633 3781 633 3756 608 c 1,673,674
 3735 625 3735 625 3712.5 644.5 c 128,-1,675
 3690 664 3690 664 3673 684 c 1,676,677
 3693 703 3693 703 3716 727.5 c 128,-1,678
 3739 752 3739 752 3753 768 c 1,679,680
 3774 747 3774 747 3791 728.5 c 128,-1,681
 3808 710 3808 710 3830 692 c 1,670,671
1645 2163 m 1,682,-1
 1653 2119 l 2,683,684
 1657 2092 1657 2092 1660 2055 c 128,-1,685
 1663 2018 1663 2018 1663 1981 c 0,686,687
 1663 1951 1663 1951 1655.5 1924.5 c 128,-1,688
 1648 1898 1648 1898 1631 1874 c 1,689,-1
 1624 1876 l 1,690,691
 1624 1964 1624 1964 1611.5 2025 c 128,-1,692
 1599 2086 1599 2086 1599 2096 c 0,693,694
 1599 2120 1599 2120 1611 2137.5 c 128,-1,695
 1623 2155 1623 2155 1645 2163 c 1,682,-1
1540 -288 m 1,696,697
 1532 -305 1532 -305 1515.5 -323 c 128,-1,698
 1499 -341 1499 -341 1471 -366 c 1,699,700
 1452 -351 1452 -351 1432 -334 c 128,-1,701
 1412 -317 1412 -317 1395 -295 c 1,702,703
 1415 -277 1415 -277 1435 -256 c 2,704,-1
 1470 -219 l 1,705,706
 1490 -239 1490 -239 1507 -255 c 128,-1,707
 1524 -271 1524 -271 1540 -288 c 1,696,697
1714 -271 m 1,708,709
 1704 -288 1704 -288 1687.5 -306.5 c 128,-1,710
 1671 -325 1671 -325 1646 -350 c 1,711,712
 1626 -334 1626 -334 1606 -317 c 128,-1,713
 1586 -300 1586 -300 1568 -279 c 1,714,715
 1588 -262 1588 -262 1608 -240.5 c 128,-1,716
 1628 -219 1628 -219 1643 -201 c 1,717,718
 1662 -223 1662 -223 1680 -238.5 c 128,-1,719
 1698 -254 1698 -254 1714 -271 c 1,708,709
EndSplineSet
EndChar

StartChar: uni066A
Encoding: 1642 1642 86
Width: 822
GlyphClass: 2
Flags: W
LayerCount: 2
Back
Fore
SplineSet
181 153 m 1,0,1
 134 191 134 191 108 253 c 1,2,3
 188 422 188 422 352 746 c 128,-1,4
 516 1070 516 1070 648 1312 c 1,5,6
 672 1295 672 1295 688 1265 c 128,-1,7
 704 1235 704 1235 705 1205 c 0,8,9
 705 1178 705 1178 690.5 1156.5 c 128,-1,10
 676 1135 676 1135 478.5 748.5 c 128,-1,11
 281 362 281 362 181 153 c 1,0,1
70 1049 m 1,12,13
 99 1099 99 1099 124 1147.5 c 128,-1,14
 149 1196 149 1196 181 1244 c 1,15,16
 285 1184 285 1184 327 1146.5 c 128,-1,17
 369 1109 369 1109 369 1094 c 0,18,19
 369 1065 369 1065 266 919 c 1,20,21
 149 1005 149 1005 70 1049 c 1,12,13
452 379 m 1,22,23
 481 429 481 429 506.5 477.5 c 128,-1,24
 532 526 532 526 564 574 c 1,25,26
 668 514 668 514 710 476.5 c 128,-1,27
 752 439 752 439 752 424 c 0,28,29
 752 396 752 396 649 248 c 1,30,31
 549 325 549 325 452 379 c 1,22,23
463 276 m 1024,32,-1
308 1439 m 1024,33,-1
EndSplineSet
EndChar

StartChar: uni066B
Encoding: 1643 1643 87
Width: 455
GlyphClass: 2
Flags: W
LayerCount: 2
Back
Fore
SplineSet
85 78 m 1,0,-1
 85 151 l 1,1,2
 251 204 251 204 251 307 c 0,3,4
 251 338 251 338 216 356.5 c 128,-1,5
 181 375 181 375 152 398.5 c 128,-1,6
 123 422 123 422 123 468 c 0,7,8
 123 518 123 518 155.5 544.5 c 128,-1,9
 188 571 188 571 236 571 c 0,10,11
 297 571 297 571 333.5 527.5 c 128,-1,12
 370 484 370 484 370 418 c 0,13,14
 370 294 370 294 298 207 c 128,-1,15
 226 120 226 120 85 78 c 1,0,-1
EndSplineSet
EndChar

StartChar: uni066C
Encoding: 1644 1644 88
Width: 329
GlyphClass: 2
Flags: W
LayerCount: 2
Back
Fore
SplineSet
310 772 m 1,0,-1
 310 699 l 1,1,2
 145 647 145 647 145 542 c 0,3,4
 145 505 145 505 208.5 475.5 c 128,-1,5
 272 446 272 446 272 382 c 0,6,7
 272 332 272 332 239.5 305.5 c 128,-1,8
 207 279 207 279 159 279 c 0,9,10
 100 279 100 279 62.5 322 c 128,-1,11
 25 365 25 365 25 431 c 0,12,13
 25 556 25 556 98.5 644 c 128,-1,14
 172 732 172 732 310 772 c 1,0,-1
EndSplineSet
EndChar

StartChar: uni200C
Encoding: 8204 8204 89
Width: 0
GlyphClass: 2
Flags: W
LayerCount: 2
Back
Fore
SplineSet
36 1667 m 1,0,-1
 36 183 l 1,1,-1
 -36 183 l 1,2,-1
 -36 1667 l 1,3,-1
 36 1667 l 1,0,-1
EndSplineSet
EndChar

StartChar: uni200D
Encoding: 8205 8205 90
Width: 0
GlyphClass: 2
Flags: W
LayerCount: 2
Back
Fore
SplineSet
36 183 m 1,0,-1
 -36 183 l 1,1,-1
 -36 1368 l 1,2,-1
 -170 1232 l 1,3,-1
 -219 1281 l 1,4,-1
 -48 1450 l 1,5,-1
 -219 1618 l 1,6,-1
 -170 1667 l 1,7,-1
 0 1496 l 1,8,-1
 170 1667 l 1,9,-1
 219 1618 l 1,10,-1
 48 1450 l 1,11,-1
 219 1281 l 1,12,-1
 170 1232 l 1,13,-1
 36 1368 l 1,14,-1
 36 183 l 1,0,-1
EndSplineSet
EndChar

StartChar: uni200E
Encoding: 8206 8206 91
Width: 0
GlyphClass: 2
Flags: W
LayerCount: 2
Back
Fore
SplineSet
430 1452 m 1,0,-1
 213 1238 l 1,1,-1
 164 1287 l 1,2,-1
 301 1417 l 1,3,-1
 35 1417 l 1,4,-1
 35 183 l 1,5,-1
 -36 183 l 1,6,-1
 -36 1488 l 1,7,-1
 301 1488 l 1,8,-1
 164 1618 l 1,9,-1
 213 1667 l 1,10,-1
 430 1452 l 1,0,-1
EndSplineSet
EndChar

StartChar: uni200F
Encoding: 8207 8207 92
Width: 0
GlyphClass: 2
Flags: W
LayerCount: 2
Back
Fore
SplineSet
35 183 m 1,0,-1
 -36 183 l 1,1,-1
 -36 1417 l 1,2,-1
 -302 1417 l 1,3,-1
 -165 1287 l 1,4,-1
 -214 1238 l 1,5,-1
 -431 1452 l 1,6,-1
 -214 1667 l 1,7,-1
 -165 1618 l 1,8,-1
 -302 1488 l 1,9,-1
 35 1488 l 1,10,-1
 35 183 l 1,0,-1
EndSplineSet
EndChar

